<?xml version="1.0" encoding="UTF-8"?><svg id="a" xmlns="http://www.w3.org/2000/svg" viewBox="0 0 640 480"><path d="M238.71699,278.99356h-54.95697l-14.30046,31.17846h-20.86872l63.52064-136.43633,61.27567,136.43633h-21.20087l-13.4693-31.17846Zm-7.89864-18.20775l-19.03943-43.65005-19.95413,43.65005h38.99356Zm71.94129-14.13444v63.52064h-18.78987v-63.52064h-6.65138v-17.46013h6.65138v-31.2612c0-10.19879,1.77352-17.40442,5.3211-21.61697,4.87732-5.8754,11.97248-8.81307,21.2844-8.81307,3.32568,0,7.51019,.96998,12.5546,2.91v19.12265l-1.91241-.99771c-4.04616-2.05081-7.37185-3.07624-9.97705-3.07624-3.32569,0-5.57066,1.19171-6.73439,3.57514-1.16425,2.32798-1.74638,6.81761-1.74638,13.46899v26.68841h20.37024v17.46013h-20.37024Zm53.64999,0v63.52064h-18.78987v-63.52064h-6.65138v-17.46013h6.65138v-31.2612c0-10.19879,1.77353-17.40442,5.3211-21.61697,4.87734-5.8754,11.97248-8.81307,21.2844-8.81307,3.32569,0,7.5102,.96998,12.55461,2.91v19.12265l-1.91241-.99771c-4.04616-2.05081-7.37185-3.07624-9.97706-3.07624-3.32569,0-5.57065,1.19171-6.73438,3.57514-1.16425,2.32798-1.74639,6.81761-1.74639,13.46899v26.68841h20.37025v17.46013h-20.37025Z" fill="#1c2023"/><path d="M407.24637,229.19125v80.98077h-18.70687v-80.98077h18.70687Zm-21.53397-33.67235c0-3.27024,1.19192-6.09708,3.57526-8.48045,2.38332-2.38343,5.23808-3.57514,8.56377-3.57514,3.38102,0,6.26295,1.19171,8.64679,3.57514,2.38332,2.32798,3.57471,5.18249,3.57471,8.56362s-1.19139,6.26336-3.57471,8.64679c-2.32851,2.38343-5.18275,3.57509-8.56377,3.57509s-6.26347-1.19166-8.64679-3.57509c-2.38334-2.38343-3.57526-5.29338-3.57526-8.72996Zm105.69676,37.16459v24.85965c-4.26753-5.21042-8.09232-8.78567-11.47336-10.72521-3.32569-1.99541-7.23351-2.99365-11.72293-2.99365-7.03928,0-12.88716,2.46686-17.54313,7.40005-4.65596,4.9332-6.98394,11.11312-6.98394,18.54032,0,7.59374,2.24496,13.82954,6.73438,18.70739,4.5453,4.87732,10.3373,7.31651,17.3766,7.31651,4.48994,0,8.4531-.97004,11.88946-2.91011,3.32569-1.88474,7.23349-5.54299,11.72293-10.97477v24.6931c-7.59322,3.93548-15.18695,5.90323-22.7807,5.90323-12.52695,0-23.00258-4.04617-31.42802-12.13903-8.42491-8.14767-12.63761-18.26308-12.63761-30.34677s4.26804-22.28211,12.80416-30.59633c8.5361-8.31422,19.01176-12.47107,31.42749-12.47107,7.98165,0,15.52007,1.9124,22.61468,5.73668Z" fill="#1c2023"/></svg>