<?xml version="1.0" encoding="UTF-8"?><svg id="a" xmlns="http://www.w3.org/2000/svg" viewBox="0 0 1081.9581 240"><path d="M533.93035,170.68245h-.21091c-7.37492,10.11329-18.75194,15.16993-34.34368,15.16993-15.80094,0-28.65432-5.68937-38.5567-17.2773-9.90238-11.58793-14.95902-25.49413-14.95902-41.29507,0-14.96074,5.05664-28.44512,15.16993-40.24396,10.3242-12.00974,23.17586-17.90831,38.76761-17.90831,14.11711,0,25.49413,5.05664,33.92187,15.16993h.21091v-13.06257h32.65642v112.5099h-32.65642v-13.06257ZM506.96158,98.83489c-15.80266,0-27.8124,11.79884-27.8124,28.44512,0,8.42603,2.74009,15.37913,8.00592,20.85759,5.26755,5.26755,12.00974,8.00592,19.80648,8.00592,7.79502,0,14.53721-2.73837,19.80476-8.00592,5.26755-5.47846,8.00592-12.43156,8.00592-20.85759,0-16.64629-12.00974-28.44512-27.81069-28.44512Z"/><path d="M661.40271,183.74502v-62.36528c0-13.27348-6.74219-21.91212-19.59557-21.91212-13.27348,0-20.22658,9.48056-20.22658,21.91212v62.36528h-32.86733v-112.5099h32.65814v14.74812h.20919c2.74009-4.63483,6.32209-8.21683,11.16783-10.95692,9.90238-5.68765,15.80094-5.89856,20.64839-5.89856,13.48438,0,23.59767,4.21473,30.33987,12.85166,6.9531,8.63865,10.3242,19.17375,10.3242,31.81622v69.94939h-32.65814Z"/><path d="M751.79301,32.04569c0,11.16611-9.05875,20.22658-20.64839,20.22658-10.95521,0-20.22658-9.06046-20.22658-20.22658s9.27137-20.43748,20.22658-20.43748c11.58964,0,20.64839,8.84956,20.64839,20.43748ZM714.92186,183.74502v-112.5099h33.07824v112.5099h-33.07824Z"/><path d="M873.7852,120.95792v62.78709h-32.65642v-62.36528c0-14.53721-6.11118-21.91212-18.33012-21.91212-13.27348,0-20.01567,8.63865-20.01567,21.91212v62.36528h-32.86904v-112.5099h32.23632v14.74812h.42182c6.10947-10.95692,19.38295-17.2773,32.86733-17.2773,15.59175,0,26.54695,5.90028,32.86904,17.91002,10.95521-12.43156,21.49031-17.91002,37.29125-17.91002,26.33776,0,39.61124,17.69911,39.61124,44.87879v70.1603h-32.86904v-62.78709c0-14.3263-6.10947-21.49031-18.33012-21.49031-12.85166,0-20.22658,8.21683-20.22658,21.49031Z"/><path d="M977.03402,85.77232c12.00803-11.37702,26.75786-17.06639,43.82425-17.06639,17.06467,0,31.6036,5.68937,43.40243,16.85548,11.79884,11.16783,17.6974,24.86312,17.6974,41.50769,0,16.85548-5.89856,30.97087-17.90831,42.34789-12.00974,11.16783-26.54695,16.85548-43.61334,16.85548-17.2773,0-31.81451-5.47675-43.61334-16.64457-11.79884-11.16611-17.69911-25.07231-17.69911-41.92779,0-16.64457,5.90028-30.75997,17.91002-41.92779ZM1000.84088,148.1376c5.26755,5.26755,12.00974,8.00592,19.80648,8.00592,15.80094,0,27.59978-12.00803,27.59978-28.86351,0-8.21855-2.73837-15.17165-8.00592-20.43748-5.26755-5.47846-12.00974-8.21855-19.80476-8.21855-7.79673,0-14.32802,2.74009-19.59557,8.21855-5.26755,5.26584-8.00592,12.21894-8.00592,20.43748,0,8.42603,2.73837,15.37913,8.00592,20.85759Z"/><path d="M389.60506,240h-124.24487L137.46895,18.48578c44.38963-32.32302,111.39295-22.26009,141.68555,30.2083l110.45056,191.30592ZM64.93925,127.52193L0,240h124.24487l64.93426-112.46951-.00499-.00856c-27.60777-47.81793-96.62712-47.81793-124.23488,0Z"/></svg>