<?xml version="1.0" encoding="UTF-8"?><svg id="a" xmlns="http://www.w3.org/2000/svg" viewBox="0 0 640 480"><path d="M362.33888,209.22712c-3.93402-.24188-6.75964,.93622-8.66052,4.53015-2.62128,4.95624-5.38556,9.84497-8.27246,14.65344-9.86688,16.435-19.57837,33.00952-33.5163,46.51624-2.60767,2.52698-5.9494,4.30426-8.95233,6.42749-1.57837-3.73315-4.16949-7.3598-4.57904-11.2157-4.32715-40.73877,8.89203-75.28748,38.21893-103.76251,3.44-3.34009,7.9649-5.79395,12.35699-7.89203,6.41864-3.06598,7.66498-2.04736,8.00714,5.07367,.14526,3.02441,.07751,6.10516,.66064,9.0517,.82599,4.1734,5.15649,7.83466,8.94983,7.70142,4.92426-.17297,4.92621-4.31085,5.46747-7.63831,.40277-2.47656,.54175-5.1308,.10754-7.5849-2.97656-16.82159-23.72412-26.51923-39.83887-18.59363-10.10034,4.96747-18.0083,12.63379-24.77441,21.41272-18.78693,24.37598-27.21582,52.32782-28.78009,86.9176,.9649,4.66595,2.25867,13.41858,4.67285,21.85394,2.15662,7.53485,8.0835,11.60681,15.72351,13.51984,12.39111,3.1026,22.15814-1.81305,30.58789-9.96887,6.03778-5.84167,11.30566-12.46582,17.01282-18.6535,2.10583-2.2832,4.48572-4.31653,6.74054-6.46375,.36938,2.96912,.84619,5.92969,1.08716,8.90906,.6012,7.43341,.77136,14.91772,1.74884,22.29846,.62549,4.7229,4.21997,6.32465,10.0694,6.22839,4.70709-.07745,5.75562-2.66785,6.0614-6.67242,1.54517-20.24017,3.37585-40.45929,4.84399-60.70465,.75171-10.36664-4.18512-15.28247-14.94293-15.94385Z" fill="#1c2023"/><path d="M106.04267,209.21339c-2.5954-1.82666-2.84039-2.93542-1.11694-5.39636,2.94379-4.20349,5.66888-8.56885,8.3028-12.97449,4.86255-8.13354,6.31232-16.94464,4.97382-26.27759-2.03046-14.15814-12.80334-23.44885-27.16241-23.16901-10.01196,.19507-18.76123,3.90363-26.26019,10.35883-6.22296,5.35687-6.05945,10.13324-.3811,16.0733,1.55206,1.62366,2.95935,4.21411,2.93158,6.34149-.07275,5.57092-1.08124,11.12262-1.52722,16.69714-1.97083,24.63031-3.87482,49.26599-5.80298,73.89978,.27502,.01758,.54993,.03516,.82483,.05267,0,5.59839-.12787,11.20032,.03259,16.79413,.19763,6.88599,4.59723,12.21936,11.203,14.26056,8.08612,2.49866,14.89355-.40955,20.87732-5.29303,13.05823-10.65723,23.23419-23.71118,30.16962-39.02698,5.07391-11.20477,3.37579-22.08276-4.4115-31.48761-3.49774-4.2243-8.11639-7.65967-12.6532-10.85284Zm-22.53534-28.67108c.40576-3.6933,.80371-7.38745,1.20508-11.0813,.03613-11.39404,1.87866-13.09857,13.56488-12.75354,8.12695,.23981,9.37335,2.01483,6.61639,9.93585-4.36163,12.53168-12.95203,22.51477-20.47363,33.13055-.44751,.63171-1.45038,.87396-2.19476,1.29736-.23529-.83606-.74091-1.69806-.66272-2.50397,.58356-6.01447,1.28479-12.0177,1.94476-18.02496Zm23.87494,44.70563c-1.31891,6.5838-2.12341,13.42651-4.57611,19.59656-5.38037,13.53448-13.55774,25.47565-23.71014,36.00366-1.07703,1.11682-2.56738,1.83923-3.86591,2.74451-.45508-1.69855-1.23016-3.38531-1.29456-5.09839-.11334-3.01434,.20776-6.04486,.34692-9.0686-.13074-.01263-.2616-.02539-.3924-.03809,1.7738-18.07111,3.5238-36.14453,5.36359-54.20898,.15875-1.55908,.91187-3.05829,1.38898-4.58533,1.19781,.92194,2.57239,1.68744,3.5611,2.79419,3.3067,3.70178,7.19757,5.8316,12.3302,5.36957,1.62213-.146,3.27405,.05017,4.9126,.06775,4.27948,.0459,6.85199,1.84924,5.93573,6.42316Z" fill="#1c2023"/><path d="M250.32954,212.20179c-1.29065-2.46222-4.44427-4.55927-7.22357-5.49652-3.52264-1.18799-3.78064,2.58008-4.65149,4.78955-5.64246,14.31482-11.14948,28.68256-16.81903,42.98663-1.54236,3.89136-3.461,7.63763-5.2854,11.41296-.27124,.56128-.97595,.91522-1.48029,1.36511-.37946-.50702-.95276-.96381-1.10138-1.53076-.41241-1.57257-.92084-3.19305-.90955-4.79132,.07837-11.18079,.24725-22.36121,.45435-33.54059,.09052-4.8858,.72162-9.7934,.40643-14.646-.30603-4.71179-3.56677-7.64337-8.11707-8.45081-4.76233-.84509-6.37366,2.96729-7.92108,6.40143-.66553,1.47699-1.09222,3.07733-1.48541,4.65656-4.22589,16.97388-4.32727,34.20581-2.57574,51.43573,.45581,4.48352,2.40552,9.02747,4.54871,13.08368,3.66779,6.94177,10.46637,7.86249,17.57892,7.71753,6.77527-.13794,10.74701-3.92725,13.271-9.71637,1.15454-2.64801,2.24237-5.32477,3.35693-7.99005-1.1842,15.85522-2.22278,31.72369-3.6781,47.55432-.33215,3.61371-1.99146,7.15131-3.35455,10.60083-.43292,1.09564-1.91736,2.5163-2.86279,2.4751-1.01477-.04419-2.55188-1.48804-2.82361-2.57721-.71704-2.87433-1.29803-5.91138-1.13171-8.8385,.16742-2.94434-.00684-5.12384-3.37256-5.70398-2.99609-.51648-5.48938-.1261-6.94299,3.1214-2.72614,6.09033-.51111,15.94122,4.66272,19.87061,5.07721,3.85596,13.34198,3.40143,18.50092-2.39709,3.9151-4.40057,7.15985-9.89362,9.04626-15.4566,2.60138-7.67114,3.77478-15.84058,5.32727-23.84125,4.63031-23.86237,7.76331-47.87109,6.28223-72.25684-.21075-3.47095-.16943-7.31866-1.6994-10.23755Z" fill="#1c2023"/><path d="M481.57057,234.94446c-1.66364-13.72595-11.29858-24.69763-23.50281-27.6098-9.87567-2.35657-20.37787,2.80536-24.414,11.99982-2.19135,4.992-.74689,8.49139,4.0708,10.93298,5.01642,2.54224,6.54883-.67163,8.31323-4.29761,2.7356-5.62152,7.23108-9.13544,13.60016-9.82153,4.81415-.51868,7.2796,1.04199,7.9386,5.79272,.5719,4.12268,.19403,8.37433,.25629,12.56866,.05463,3.6701-1.50354,4.39734-5.24438,4.25781-4.73285-.17651-10.19568-.112-14.15942,2.02368-11.79102,6.35284-18.95306,25.16272-16.13806,38.4375,1.26819,5.97992,5.06488,8.52094,10.38068,10.01117,5.48999,1.539,10.26239,.66876,13.95569-3.86163,2.06537-2.53363,3.85327-5.28943,5.85687-7.87567,.5379-.69421,1.40771-1.13391,2.12518-1.69049,.41412,.98657,1.11957,1.9527,1.19147,2.96332,.2981,4.18921,.23932,8.40704,.62555,12.58557,.43646,4.72119,2.45996,6.0896,7.4646,6.35199,4.75586,.24939,5.13812-2.58539,5.37305-6.19733,.86365-13.27264,1.91553-26.5332,2.89648-39.79828-.15997-.00415-.32001-.00824-.48004-.01245,0-5.59119,.55804-11.24939-.10992-16.76044Zm-20.80719,15.7865c-3.68597,5.86304-7.35938,11.73456-11.1261,17.54608-.45251,.6983-1.43256,1.05835-2.16821,1.5752-.21246-.77625-.77515-1.65283-.5838-2.31323,2.09106-7.21649,5.43164-13.71631,11.46893-18.50806,.62903-.49921,1.64362-.54132,2.49762-.69464,.07507-.01349,.28705,.72791,.43542,1.11871-.1709,.42896-.2829,.89258-.52386,1.27594Z" fill="#1c2023"/><path d="M573.26716,255.30591c-3.13263-.15417-4.23199,1.55554-5.74274,3.94891-3.83124,6.06958-8.17114,11.83276-12.54291,17.54004-.61823,.80707-2.55255,.61639-3.87769,.88751-.57501-4.59796-1.76233-9.237-1.45386-13.77557,.14349-2.1106,3.05872-4.15991,4.9458-6.00592,7.32159-7.16211,15.44751-13.65045,21.914-21.49854,6.48694-7.87299,3.46027-19.22369-5.1925-24.914-9.99683-6.57422-18.91095-4.93274-25.3689,4.61816-8.67871,12.83527-11.61786,27.26459-13.0014,42.61737,1.46069,7.2489,2.04004,14.82166,4.58447,21.67212,4.02216,10.82941,19.20001,13.492,26.51495,4.62592,5.57861-6.76147,10.07434-14.51245,14.30963-22.2265,2.58368-4.70587,.34637-7.22217-5.08887-7.4895Zm-10.99432-34.74298c.27118-.53406,1.56207-.55554,2.37915-.81525,.28638,1.09998,.57275,2.19989,.76349,2.93286-.59662,8.33844-6.44403,13.05695-11.07855,18.505-.50745-.4491-1.53021-1.13757-1.44794-1.31274,3.04034-6.47827,6.14331-12.92896,9.38385-19.30988Z" fill="#1c2023"/><path d="M165.64485,141.292c-3.52063-1.05347-4.2196,2.95581-4.83307,5.52618-1.56366,6.5506-3.55975,13.12567-4.02753,19.78528-1.48419,21.12964-2.3493,42.30237-3.45374,63.45844l.77673,.0473c0,3.02875-.01056,6.05756,.00183,9.08618,.05988,14.68146-.02679,29.36584,.25854,44.04297,.12958,6.66675,3.07166,8.58771,8.84137,6.87103,3.90137-1.16077,3.78546-4.16705,3.91791-7.25171,.90906-21.18268,1.72827-42.37036,2.82849-63.5434,1.11182-21.39667,2.5434-42.77686,3.75159-64.16888,.14343-2.53894,.62628-5.65924-.58179-7.52991-1.72424-2.66968-4.55835-5.4491-7.48035-6.32349Z" fill="#1c2023"/><path d="M194.37397,165.24146c0-5.35785,.17987-10.72375-.06128-16.0708-.16974-3.763-4.15588-7.85614-7.55457-8.0517-4.31696-.24841-4.18457,3.63605-5.40289,6.18689-.49683,1.04004-.87793,2.19519-1.01898,3.3338-1.77191,14.2962-4.53302,28.56561-4.99609,42.90723-.85706,26.53857-.37018,53.1203-.4187,79.68414-.0072,3.96033,.16284,7.92078,.17084,11.88129,.00879,4.33643,2.45111,5.58386,6.38232,5.37384,4.35419-.2326,5.95117-2.29309,6.0769-6.67841,.4472-15.59973,1.01251-31.20441,1.99054-46.77881,1.50317-23.93445,3.38483-47.84521,5.10577-71.76605l-.27386-.02142Z" fill="#1c2023"/><path d="M512.63648,221.41175c.45801-.64862,1.53119-.86737,2.32227-1.28333,.39661,.76624,1.04913,1.50214,1.14532,2.30402,.41602,3.46844,.59656,6.9646,1.00085,10.43475,.46741,4.01117,3.64246,5.16943,6.90399,5.90204,3.75488,.84351,4.76166-2.08417,5.80756-4.71094,3.47797-8.73474-.68451-18.64087-9.85065-23.52344-9.39587-5.00494-16.93201-3.15234-22.94666,5.85779-7.71228,11.5531-11.20862,24.49408-12.11426,38.18573-.57117,8.63458-.53088,17.25598,2.70709,25.50391,4.32977,11.02899,19.33502,14.53436,26.91107,5.51361,5.91492-7.04291,10.11243-15.51898,15.01971-23.39111,2.07562-3.32971,.52917-5.2016-2.78607-6.18262-3.83997-1.13611-6.21228-.31464-8.43713,3.66205-3.4939,6.2453-8.04822,11.93079-12.42664,17.64636-1.90875,2.49164-4.01416,2.50922-4.57495-1.2254-.58569-3.90021-1.03168-7.82111-1.53882-11.73297,.38977-12.76068,3.10138-25.13367,8.4165-35.87567,1.23071-2.4873,2.83411-4.80902,4.4408-7.08478Z" fill="#1c2023"/><path d="M424.9148,218.44672c-2.29285-7.67291-16.43988-14.70941-22.40802-8.22717-3.22418,3.50189-5.62354,3.05127-9.31378,.40924-5.47729-3.92133-9.18524-2.19403-10.6925,4.21857-.42303,1.80017-.47754,3.69702-.59131,5.55627-.69849,11.41296-1.36548,22.82794-2.04297,34.24219l-.45099,.01031c0,6.29712-.14264,12.59863,.04865,18.89014,.13416,4.41382,.37177,8.8811,1.20483,13.20221,.90472,4.69269,5.0556,4.98987,8.86169,4.97229,4.51471-.02106,3.284-3.55151,3.44287-6.1604,.42535-6.98315,1.01672-13.9613,1.23083-20.95087,.39941-13.03546,4.71863-24.65918,12.36792-35.11487,1.17535-1.60651,2.8924-2.8208,4.35883-4.21637,.81531,1.62097,1.80798,3.17932,2.41296,4.87463,1.85669,5.20276,5.20099,8.82629,10.64508,10.25464,2.29645,.60248,4.64307,.36328,4.23468-2.74048-.84833-6.44861-1.45911-13.03064-3.30878-19.22034Z" fill="#1c2023"/><path d="M138.45625,205.42036c-4.34155,.8949-4.71643,4.71729-5.51062,8.07361-.37213,1.57288-.44733,3.24261-.45355,4.8692-.03882,10.02454-.01953,20.04919-.01953,30.07385l.07465,.00024c0,10.95856-.16132,21.92047,.07166,32.87408,.10767,5.06305,2.13586,6.7373,6.85077,6.93286,5.13708,.2132,7.40765-1.49847,7.86108-6.63635,.63513-7.19702,.94525-14.42316,1.35724-21.63892,.73071-12.79877,1.60474-25.59344,2.03229-38.40253,.11279-3.37878-.76215-6.96179-1.95508-10.16675-1.35986-3.65308-7.01947-6.65735-10.3089-5.97931Z" fill="#1c2023"/><path d="M142.69441,171.76319c-4.07501-1.34814-6.24176-.18658-6.83472,4.11151-.63239,4.58386-1.13116,9.21448-1.23419,13.83472-.1225,5.49634,3.40814,10.00891,8.63605,11.20142,1.20398,.27466,3.63342-.42841,3.92627-1.24182,1.95172-5.422,3.47662-10.99597,4.80121-15.39459-.1731-5.34247-4.85034-11.04108-9.29462-12.51123Z" fill="#1c2023"/></svg>