<?xml version="1.0" encoding="UTF-8"?><svg id="a" xmlns="http://www.w3.org/2000/svg" viewBox="0 0 640 480"><path d="M67.12549,185.26904c-.2002,.02222-.35596,.20026-.35596,.40045,0,.20026,.15576,.37823,.35596,.35602,12.43701,1.22363,24.16162,6.76349,32.99414,15.61829,10.23438,10.23431,15.88574,23.85034,15.88574,38.33398s-5.65137,28.09967-15.88574,38.33386c-8.83252,8.85486-20.55713,14.39471-32.99414,15.61835-.2002,.02228-.35596,.20026-.35596,.40045,0,.20026,.15576,.37823,.35596,.40051,16.46387,1.62408,32.61621-4.16046,44.29639-15.84082,21.44727-21.44739,21.44727-56.33282,0-77.78027-11.68018-11.68036-27.83252-17.46497-44.29639-15.84082Z" fill="#1c2023" fill-rule="evenodd"/><path d="M267.5166,250.65723c0,3.71545-.44482,7.34192-1.33496,10.85718-.86768,3.5152-2.26904,6.63-4.22705,9.36652-1.93555,2.73657-4.5166,4.93915-7.72021,6.63-3.20361,1.69092-7.1416,2.53632-11.81396,2.53632-4.67188,0-8.60986-.8454-11.81348-2.53632-3.2041-1.69086-5.7627-3.89343-7.72021-6.63-1.95801-2.73651-3.35986-5.85132-4.22754-9.36652-.84521-3.51526-1.29004-7.14172-1.29004-10.85718v-56.64441h-9.34424v57.69006c0,3.80444,.48926,7.85364,1.49023,12.14758,1.00146,4.27167,2.78125,8.23187,5.38428,11.88062,2.60303,3.62646,6.09619,6.65222,10.52344,9.03284,4.42725,2.38055,10.10059,3.55969,17.02002,3.55969,6.83008,0,12.50342-1.17914,16.95312-3.55969,4.47217-2.38062,7.9873-5.40637,10.59033-9.03284s4.40527-7.58667,5.40625-11.88062c.979-4.29395,1.49072-8.34314,1.49072-12.14758v-57.69006h-9.3667v56.64441Z" fill="#1c2023" fill-rule="evenodd"/><path d="M410.06152,243.04803c-2.58105-1.95782-5.49561-3.53748-8.69922-4.6944l-9.65576-3.38171-7.45312-2.60309c-2.3584-.86768-4.47217-1.9801-6.34082-3.315-1.86914-1.3349-3.35938-2.95898-4.47217-4.87238-1.13428-1.91333-1.69092-4.33844-1.69092-7.27521,0-2.95898,.60107-5.51758,1.75781-7.67566s2.69189-3.96021,4.60547-5.38409c1.91309-1.42389,4.02686-2.49182,6.36279-3.18152,2.3584-.6897,4.6499-1.04565,6.89697-1.04565,4.40527,0,8.1875,.84546,11.30225,2.53632s5.65137,3.91571,7.65332,6.69672l7.40869-5.98474c-2.26904-3.02582-5.58398-5.65112-10.01172-7.8537-4.40479-2.22479-9.74463-3.315-15.97412-3.315-3.38184,0-6.78564,.46722-10.25635,1.42389-3.4707,.95673-6.63037,2.4696-9.5,4.5387-2.84814,2.06909-5.16162,4.71661-6.94189,7.92041-1.77979,3.20374-2.66943,7.03046-2.66943,11.43561,0,4.1604,.71191,7.65344,2.13574,10.52344,1.42383,2.84778,3.31494,5.25061,5.65088,7.2085,2.33643,1.93561,4.96143,3.53748,7.92041,4.73889,2.93701,1.20142,5.94043,2.29156,8.96631,3.24823l8.43213,2.84778c2.66992,.95667,5.07275,2.15808,7.1416,3.58197,2.06934,1.42389,3.75977,3.2038,5.00586,5.31738,1.26807,2.11359,1.89111,4.78339,1.89111,7.98712,0,2.95905-.64502,5.53986-1.89111,7.74243s-2.84766,4.07147-4.80566,5.58435-4.13818,2.64752-6.56299,3.38171c-2.42529,.73419-4.80566,1.11243-7.14209,1.11243-4.8501,0-9.07715-1.11243-12.68115-3.315-3.60449-2.20258-6.38525-4.96136-8.3877-8.25409l-8.0542,5.9848c1.64648,2.24707,3.56006,4.22717,5.71777,5.96252,2.1582,1.73535,4.49414,3.18152,7.0083,4.29395,2.51416,1.13464,5.13965,1.9801,7.92041,2.53632,2.78125,.55621,5.54004,.8454,8.3208,.8454,3.64893,0,7.25293-.51172,10.85742-1.55737,3.58203-1.04565,6.78564-2.64752,9.58887-4.80566,2.80322-2.1803,5.07275-4.91687,6.83057-8.25409,1.75732-3.33728,2.625-7.3197,2.625-11.90289s-.82324-8.38757-2.46973-11.3689c-1.62402-3.00348-3.75977-5.45081-6.34033-7.40869Z" fill="#1c2023" fill-rule="evenodd"/><polygon points="524.26221 235.7063 570.62744 194.01282 557.25635 194.01282 513.47168 235.32812 513.33789 235.32812 513.33789 194.01282 503.99365 194.01282 503.99365 285.98755 513.33789 285.98755 513.33789 237.01898 513.47168 237.01898 559.45898 285.98755 573.23047 285.98755 524.26221 235.7063" fill="#1c2023" fill-rule="evenodd"/></svg>