<?xml version="1.0" encoding="UTF-8"?><svg id="a" xmlns="http://www.w3.org/2000/svg" viewBox="0 0 640 480"><path d="M419.23469,251.56357c0,20.77441,9.40141,32.14665,26.14819,32.14665,16.933,0,27.05706-16.1292,27.05706-16.1292l3.12139,10.68091c.71889,2.42337,2.98731,4.11778,5.52391,4.11778h21.10109c1.51599,0,2.74891-1.22621,2.74891-2.75003v-2.14065c0-1.51638-1.23292-2.75003-2.74891-2.75003h-.02981c-4.87578,0-8.83152-3.95426-8.83152-8.83005l.00745-67.81689c0-1.7913-1.68735-3.1069-3.42682-2.66094l-28.10376,7.14292c-1.218,.31218-2.06355,1.40478-2.071,2.66093v2.76497c0,1.5163,1.22547,2.75014,2.74891,2.75014,4.87581,0,8.8241,3.96168,8.80921,8.83016l-.11921,40.98434s-6.88346,7.75991-16.96279,7.75991c-8.42926,0-12.94004-7.02389-12.94004-15.74256l-.03723-54.54933c0-1.7913-1.6948-3.1069-3.42685-2.66094l-28.12607,7.20238c-1.21877,.31218-2.06617,1.40478-2.06617,2.66093v2.76497c0,1.5163,1.22621,2.75014,2.75005,2.75014h.02234c4.86236,0,8.79952,3.93937,8.80696,8.80044l.0447,32.01304Z" fill="#1c2023"/><path d="M540.19061,211.16756s10.22466-15.92102,26.25996-15.92102c19.75643,0,33.54943,17.50421,33.54943,42.5825,0,27.0254-15.36862,45.89718-37.3711,45.89718-13.75203,0-22.4383-12.62079-22.4383-12.62079v19.28076c-.00745,4.88324,3.95205,8.8375,8.82785,8.83005,1.52344,0,2.76008,1.22658,2.76008,2.75003v2.1481c.00745,1.52382-1.2292,2.75785-2.75263,2.75785h-39.7587c-1.51599,0-2.74891-1.23403-2.74891-2.75785v-2.15518c0-1.52382,1.23292-2.7504,2.74891-2.7504h.02234c4.87581,0,8.83152-3.95426,8.83152-8.83005v-70.78983c0-4.86107-3.92593-8.80044-8.78682-8.82271h-.08193c-1.51602,0-2.74146-1.23385-2.74146-2.75014v-2.77242c0-1.25616,.84925-2.35621,2.06727-2.66838l28.17077-7.26183c1.74692-.44597,3.44171,.86963,3.44171,2.66837v13.18575Zm.00745,45.40699s5.30418,12.56865,17.40608,12.56865c14.10589,0,20.38219-15.55669,20.38219-30.5338,0-14.79866-4.58151-28.71282-19.49197-28.71282-11.02173,0-18.30375,9.57341-18.30375,9.57341l-.00745,37.01517,.01489,.08939Z" fill="#1c2023" fill-rule="evenodd"/><path d="M405.78958,275.59496c-.55015-.54978-1.2858-.85448-2.06617-.85448h-.20075c-4.6754,0-8.48104-3.80564-8.48104-8.48103v-24.2087c.00745-4.11741,.01489-10.79966,.01489-15.3411,0-23.56937-11.16402-31.58189-23.1974-31.58189-17.18482,0-28.65353,14.76893-28.65353,14.76893l-.07448,.0669v-11.98164c0-1.79873-1.69443-3.11434-3.44135-2.66837l-28.17006,7.26184c-1.21914,.31218-2.06654,1.41223-2.06654,2.66835v2.77245c0,1.51626,1.22658,2.75011,2.74297,2.75011h.07411c4.86126,.02231,8.79318,3.96168,8.79318,8.82275v46.32099c0,4.87616-3.95426,8.83042-8.83041,8.83042h-.02237c-1.51599,0-2.75002,1.22621-2.75002,2.75003v2.15555c0,1.52345,1.23403,2.75749,2.75002,2.75749h39.75833c1.52344,0,2.75746-1.23403,2.75002-2.75749v-2.1481c0-1.52382-1.23403-2.75003-2.75749-2.75003-4.87615,.00708-8.83786-3.94682-8.83041-8.83042v-47.55487l.07448-.07431s7.25446-7.52942,16.29272-7.52942c8.43597,0,13.47566,5.89419,13.47566,15.76495v48.35035l.02978,.35684c.34159,4.01349,3.76096,7.15015,7.78934,7.15015h22.92288c1.60539,0,2.92101-1.30816,2.92101-2.91355v-1.80616c.00745-.78035-.29725-1.51638-.8474-2.06653Z" fill="#1c2023"/><path d="M157.63862,211.16756s10.22761-15.92102,26.25996-15.92102c19.75643,0,33.55165,17.50421,33.5442,42.5825,0,27.0254-15.37083,45.89718-37.37182,45.89718-13.7509,0-22.43978-12.62079-22.43978-12.62079v19.28076c-.00745,4.88324,3.95426,8.8375,8.83005,8.83005,1.52382,0,2.75785,1.22658,2.75785,2.75003v2.1481c.00746,1.52382-1.22658,2.75785-2.7504,2.75785h-39.75794c-1.516,0-2.75003-1.23403-2.75003-2.75785v-2.15518c0-1.52382,1.23403-2.7504,2.75003-2.7504h.02235c4.87615,0,8.83005-3.95426,8.83005-8.83005v-70.78983c0-4.86107-3.92447-8.80044-8.78535-8.82271h-.07449c-1.51601,0-2.74259-1.23385-2.74259-2.75014v-2.77242c0-1.25616,.8474-2.35621,2.06653-2.66838l28.17004-7.26183c1.74656-.44597,3.44135,.86963,3.44135,2.66837v13.18575Zm.0149,45.40699s5.30712,12.56865,17.40756,12.56865c14.10736,0,20.3807-15.55669,20.3807-30.5338,0-14.79866-4.57854-28.71282-19.48861-28.71282-11.02284,0-18.30709,9.57341-18.30709,9.57341l-.00745,37.01517,.0149,.08939Z" fill="#1c2023" fill-rule="evenodd"/><path d="M40,239.46983c0-24.43911,18.20288-44.2475,40.66493-44.2475s40.67201,19.80838,40.66456,44.2475c0,24.43889-18.21025,44.24709-40.66456,44.24709s-40.66493-19.8082-40.66493-44.24709Zm22.2389,.43208c0,18.2028,8.25039,32.9568,18.42603,32.9568s18.42555-14.754,18.42555-32.9568-8.25009-32.95702-18.42555-32.95702-18.42603,14.75407-18.42603,32.95702Z" fill="#1c2023" fill-rule="evenodd"/><path d="M301.66385,254.96172l1.96969,1.47912c1.15207,.8623,1.48655,2.3932,.78778,3.64958-3.8872,7.12036-15.24454,23.69542-36.72556,23.69542h-.01489c-24.65455-.00708-39.4011-22.03042-39.4011-43.31067,0-31.07644,20.16541-45.17644,38.6282-45.17644h.02235c25.64311,0,33.35089,30.23657,34.07944,34.71853,.23766,1.45681-.71366,2.84662-2.16299,3.17365l-50.59491,11.34989,.11137,.34194c.01489,.05215,1.64264,5.06165,5.84199,9.98958,3.88759,4.55656,10.815,9.98995,21.78571,9.99741h.01491c10.70326,0,18.25494-6.03569,21.80769-9.63312,1.02581-1.03289,2.6759-1.15208,3.85034-.27489Zm-54.89858-27.93243c-.16352,4.91307,.42351,5.89419,.54233,6.0428l.14155,.15607,30.4593-6.32522v-.24528c0-2.66838-.43096-5.67867-1.18934-8.25784-1.03288-3.50084-2.61631-6.2584-4.71226-8.20581-2.31907-2.15548-5.21772-3.24811-8.61439-3.24811h-.00745c-11.01539,0-16.35231,11.74379-16.61975,20.08339Z" fill="#1c2023" fill-rule="evenodd"/></svg>