<?xml version="1.0" encoding="UTF-8"?><svg id="a" xmlns="http://www.w3.org/2000/svg" viewBox="0 0 640 480"><path d="M100.74046,173.47479H58.88913v20.83368h48.79588v13.79714c-3.80998,.44067-6.54134,3.8865-6.10067,7.69647,.3705,3.20333,2.89734,5.73016,6.10067,6.10067v13.79714H58.88913v41.71335h31.04356v-20.51175h10.80776c23.03765,0,41.71335-18.67571,41.71335-41.71335s-18.67571-41.71335-41.71335-41.71335" fill="#1c2023"/><path d="M86.80535,215.18815c0-3.83538-3.10919-6.94456-6.94456-6.94456-3.83538,0-6.94456,3.10919-6.94456,6.94456s3.10919,6.94456,6.94456,6.94456,6.94456-3.10919,6.94456-6.94456h0" fill="#1c2023"/><path d="M52.03655,208.24358c-3.83504-.0508-6.98513,3.01693-7.03593,6.85197-.0508,3.83504,3.01693,6.98513,6.85197,7.03593,3.83504,.0508,6.98513-3.01694,7.03593-6.85197l.00061-.09137c0-3.83538-3.10918-6.94456-6.94456-6.94456h0" fill="#1c2023"/><path d="M190.97375,193.06673c-8.37026,0-16.74053,1.01179-36.79237,6.48466l4.59905,20.51175c8.69978-2.01484,17.56819-3.21577,26.49051-3.58726,8.37026,0,10.43984,3.58726,10.43984,10.76177h-14.62497c-23.40915,0-35.2287,8.18631-35.2287,25.80065,0,20.32779,9.93394,26.30654,27.18037,26.30654,8.8468-.13526,17.15363-4.28022,22.58132-11.26767v9.74997h30.58367v-50.58951c0-24.099-10.43984-34.17092-35.2287-34.17092m4.59905,59.14374c-3.29927,3.09143-7.62146,4.85959-12.14148,4.96697-4.36462,.50873-8.31525-2.61709-8.82399-6.98171-.04126-.35397-.05869-.71031-.05218-1.06662,0-5.47287,3.90919-7.35848,10.76177-7.35848h10.25587v10.43984Z" fill="#1c2023"/><path d="M281.57496,241.40271l-3.77122-12.83134-12.46341-33.80299h-31.96338l29.38791,75.51634c-5.99569,5.58595-13.02631,9.94493-20.69571,12.83134l9.97994,23.40915c23.00997-6.82771,42.08756-23.01781,52.5671-44.61076,9.19809-17.24642,17.24642-41.71335,25.47872-67.14608h-32.79121c-3.8349,15.98469-9.099,31.59229-15.72875,46.63434" fill="#1c2023"/><path d="M389.56059,203.46058c-6.5313-7.07632-15.85989-10.89868-25.47872-10.43984-18.94808,0-30.76762,12.83134-30.76762,42.21925,0,31.08956,15.22285,44.10486,32.46928,44.10486,9.27311,.64184,18.23461-3.48357,23.77706-10.94574v9.19809h30.9516v-104.12241h-30.9516v29.98578Zm0,42.9091c-2.71668,4.75718-7.86419,7.59718-13.33724,7.35848-7.6804,0-12.32545-5.47287-12.32545-18.39619,0-11.45163,4.09315-16.23463,11.77355-16.23463,5.64368,.24737,10.80382,3.25744,13.79714,8.04834v19.316l.092-.09199Z" fill="#1c2023"/><path d="M469.21608,210.63509v-16.05067h-30.9516v83.24275h30.9516v-38.63199c3.26532-11.77356,10.07192-14.34902,20.14381-14.34902,2.89739,0,5.65684,0,9.74999,.32193l2.06956-31.45748c-3.40451-.38527-6.83001-.55424-10.25589-.50589-9.19809,0-15.54477,5.2889-21.70751,17.43039" fill="#1c2023"/><path d="M551.26306,193.06673c-27.59428,0-43.73694,15.72874-43.73694,43.59896s16.23463,42.72514,43.73694,42.72514,43.73694-15.54478,43.73694-42.72515-16.4186-43.59895-43.73694-43.59895m0,62.04114c-8.55423,0-13.52121-4.59905-13.52121-18.39619s5.10494-19.316,13.52121-19.316,13.52121,4.59905,13.52121,19.316-5.10494,18.39619-13.52121,18.39619" fill="#1c2023"/></svg>