<?xml version="1.0" encoding="UTF-8"?><svg id="a" xmlns="http://www.w3.org/2000/svg" viewBox="0 0 640 480"><path d="M290.56891,194.85791c-7.41604,.00665-14.6613,2.22685-20.80782,6.37628-1.00702-1.00613-2.01491-1.84607-3.02122-2.68417-3.32502-2.39027-7.31413-3.6812-11.40911-3.69212-7.88722,0-13.42492,3.18817-13.42492,10.74032,.01869,2.87429,1.23499,5.61062,3.35611,7.55038,2.7453,2.1193,4.30618,5.42783,4.19609,8.89424v79.70522c-.04353,7.27783,5.82104,13.21298,13.09888,13.25651,.05192,.00031,.10386,.00031,.15581,0,7.35825,.05677,13.36929-5.86222,13.42609-13.22047l.00022-.03604v-20.64233c4.91482,2.77111,10.46554,4.21707,16.10772,4.19609,23.49109,0,31.21034-14.93279,31.21034-40.77387v-12.75272c.00019-24.1648-10.73834-36.91734-32.8882-36.91734Zm6.37536,55.03827c0,8.39206-2.8522,13.25648-11.07406,13.25648-3.6251-.11686-7.08387-1.54859-9.73101-4.02803v-38.59365c2.75722-2.11618,6.09238-3.34454,9.5635-3.52229,8.05346,0,11.24157,4.19427,11.24157,12.58454v20.30295Z" fill="#1c2023" fill-rule="evenodd"/><path d="M405.5143,207.78024c0-8.39212-7.38424-12.75433-15.27013-12.75433-8.82299-.20696-17.29104,3.47477-23.15732,10.06834-3.88416-5.57006-10.16224-8.98845-16.9486-9.22845-8.22053,0-13.42359,3.18817-13.42359,10.90653,.05408,2.81801,1.26831,5.48891,3.35611,7.38238,2.89774,2.04344,4.6441,5.3489,4.69911,8.89424v48.99796c.03536,7.35589,6.02716,13.29033,13.38303,13.255l.04146-.00028c7.27718,.04397,13.21208-5.81968,13.25608-13.09683,.00031-.05263,.00031-.10526,0-.15788v-44.97166c2.24127-4.63045,7.12917-7.37514,12.24949-6.87843,5.03555,0,6.37672,.67015,9.39599,.67015,6.75183,.1223,12.32443-5.25197,12.44676-12.0038,.0065-.36122-.00297-.72253-.0284-1.08292Z" fill="#1c2023" fill-rule="evenodd"/><path d="M416.25505,252.41417c-9.22069,.04622-16.65808,7.55855-16.61185,16.77924,.04629,9.22069,7.55861,16.65808,16.7793,16.61182,9.15485-.04588,16.56513-7.45564,16.61179-16.61049,.05235-9.21527-7.37563-16.72819-16.59094-16.78057-.06275-.00034-.12555-.00034-.1883,0Z" fill="#1c2023" fill-rule="evenodd"/><path d="M490.42171,216.33672c4.06076-.11154,8.08904,.75193,11.74734,2.51799,4.9228,2.1327,10.64242-.12911,12.77515-5.05191,.11689-.26976,.2214-.54469,.31336-.82395,2.20773-5.09622-.11658-11.01856-5.20126-13.25277-6.91748-3.45781-14.5897-5.13124-22.31879-4.86801-23.99504,0-36.24644,17.95649-36.24644,40.10551v11.74462c0,22.15258,10.23724,38.59365,36.07881,38.59365,7.59623,.20686,15.13207-1.40327,21.9805-4.69642,5.03747-2.28217,7.45533-8.06884,5.53906-13.25651-1.61808-5.13081-7.08919-7.97843-12.21997-6.36032-.29442,.09285-.58426,.19962-.86854,.32001-3.93335,1.84942-8.23984,2.76789-12.58549,2.68417-7.551,0-11.2447-6.04031-11.2447-15.60486v-16.44645c.00012-10.23455,4.70059-15.60474,12.25098-15.60474Z" fill="#1c2023" fill-rule="evenodd"/><path d="M562.91515,194.85791c-25.67308,0-37.25242,16.44462-37.25242,36.24542v18.1227c0,19.799,11.57934,36.07566,37.25242,36.07566,25.50551,0,37.08485-16.27665,37.08485-36.07566v-18.12273c.00006-19.80077-11.57934-36.24539-37.08485-36.24539Zm10.57318,54.20012c0,8.39045-3.69252,12.58636-10.57318,12.58636-7.04811,0-10.57194-4.19544-10.57145-12.58636v-17.78663c0-8.3903,3.52384-12.58515,10.57145-12.58454,6.88066,0,10.57318,4.19427,10.57318,12.58454v17.78663Z" fill="#1c2023" fill-rule="evenodd"/><path d="M191.94485,213.22902l-13.03492,13.03492c-2.39324-8.96695-7.0947-17.15014-13.63583-23.73403l-.01216-.01074-.00987-.01071-.03886-.03932-.12165-.12165c-20.83759-20.83881-54.62297-20.83981-75.46179-.00223l-.00223,.00223h-.0009l-.2359,.23768-45.48341,45.48105c-5.20975,5.20974-5.20977,13.65641-.00003,18.86614s13.65639,5.20977,18.86614,.00003l13.03537-13.0331c7.63624,28.46863,36.90503,45.35665,65.37365,37.72041,9.043-2.42564,17.28878-7.18755,23.90949-13.8077l45.71898-45.71883c5.20674-5.21224,5.20228-13.65848-.00996-18.86522-5.20868-5.20321-13.64796-5.20281-18.85615,.0009l.00003,.00015Zm-45.7178,45.71688l-.00179,.00179c-10.42863,10.41032-27.32194,10.3955-37.73226-.03314-10.39738-10.41567-10.39738-27.28345,0-37.69912v-.00179c10.41947-10.41997,27.31319-10.42037,37.73316-.0009s10.42037,27.31319,.0009,37.73316h0Z" fill="#1c2023" fill-rule="evenodd"/></svg>