<svg width="1459" height="317" viewBox="0 0 1459 317" fill="none" xmlns="http://www.w3.org/2000/svg">
<path fill-rule="evenodd" clip-rule="evenodd" d="M234.9 82.042L200.74 116.212L146.506 61.9787C127.637 43.1097 97.0456 43.1097 78.1766 61.9787L74.7574 65.398C74.7112 65.4441 74.6741 65.4827 74.6354 65.5288L40.4846 31.387V31.3781C41.0825 30.7519 41.6893 30.1362 42.2961 29.5279C80.9771 -9.15311 142.927 -9.91906 180.665 27.819C181.439 28.5939 182.205 29.3881 182.954 30.1823C183.336 30.5184 183.719 30.8635 184.084 31.2279L234.9 82.042Z" fill="#671EF3"/>
<path fill-rule="evenodd" clip-rule="evenodd" d="M128.991 187.96L94.8312 222.12L44.0155 171.304C43.6601 170.949 43.3343 170.595 43.0161 170.23C42.1936 169.464 41.3905 168.689 40.5874 167.886C3.45608 130.746 3.59737 70.1694 40.4847 31.3857L74.6355 65.5276C55.8884 84.4056 55.9345 114.905 74.7575 133.727L128.991 187.96Z" fill="#0BCEFC"/>
<path d="M128.645 84.1308C118.866 74.5928 103.207 74.7877 93.6693 84.5661C84.1313 94.3445 84.3262 110.004 94.1046 119.542L155.537 179.464C165.315 189.002 180.974 188.807 190.512 179.028C200.05 169.25 199.856 153.591 190.077 144.053L128.645 84.1308Z" fill="#FF9243"/>
<path d="M44.5139 138.095C54.0518 128.316 69.7113 128.122 79.4901 137.661L140.922 197.583C150.701 207.121 150.896 222.781 141.356 232.558C131.818 242.337 116.159 242.532 106.38 232.992L44.9482 173.07C35.1694 163.532 34.9745 147.873 44.5124 138.094L44.5139 138.095Z" fill="#0BCEFC"/>
<path fill-rule="evenodd" clip-rule="evenodd" d="M193.845 285.48L160.908 252.543C179.039 233.628 178.786 203.586 160.17 184.97L105.507 130.307C105.143 129.942 104.769 129.578 104.395 129.233L138.853 94.166L190.108 144.533C190.472 144.888 190.808 145.252 191.135 145.626C191.958 146.372 192.761 147.138 193.555 147.924C231.359 185.073 231.396 246.424 193.845 285.48Z" fill="#FF9243"/>
<path fill-rule="evenodd" clip-rule="evenodd" d="M193.845 285.481C193.584 285.76 193.322 286.032 193.051 286.303C154.715 325.311 92.7746 326.619 54.7108 289.218C53.9166 288.433 53.1418 287.649 52.3758 286.846C51.9936 286.519 51.6292 286.183 51.2648 285.827L0 235.459L33.2911 201.579C33.4503 201.738 33.6079 201.897 33.7581 202.055L88.4214 256.709C107.29 275.578 137.882 275.578 156.751 256.709L160.17 253.301C160.423 253.048 160.666 252.805 160.908 252.544L193.845 285.481Z" fill="#FF026A"/>
<path d="M364.813 259.124C354.631 259.124 345.508 257.47 337.443 254.165C329.376 250.859 322.899 245.966 318.006 239.489C313.246 233.009 310.733 225.208 310.468 216.085H346.566C347.095 221.241 348.88 225.209 351.922 227.985C354.962 230.629 358.93 231.951 363.821 231.951C368.845 231.951 372.812 230.827 375.721 228.579C378.629 226.2 380.085 222.959 380.085 218.862C380.085 215.425 378.895 212.581 376.515 210.334C374.268 208.086 371.424 206.235 367.987 204.78C364.682 203.326 359.922 201.672 353.706 199.822C344.714 197.045 337.377 194.268 331.69 191.491C326.004 188.715 321.113 184.616 317.014 179.195C312.915 173.773 310.867 166.698 310.867 157.973C310.867 145.016 315.561 134.899 324.948 127.626C334.336 120.223 346.567 116.521 361.639 116.521C376.978 116.521 389.341 120.223 398.729 127.626C408.117 134.899 413.142 145.081 413.803 158.17H377.111C376.847 153.674 375.194 150.172 372.153 147.658C369.111 145.014 365.212 143.692 360.451 143.692C356.352 143.692 353.047 144.816 350.535 147.063C348.023 149.18 346.767 152.287 346.767 156.386C346.767 160.882 348.882 164.384 353.114 166.898C357.346 169.41 363.957 172.121 372.947 175.029C381.939 178.07 389.21 180.979 394.764 183.756C400.45 186.533 405.341 190.565 409.44 195.855C413.539 201.144 415.589 207.954 415.589 216.284C415.589 224.217 413.539 231.423 409.44 237.903C405.474 244.383 399.656 249.538 391.986 253.374C384.317 257.208 375.26 259.127 364.815 259.127L364.813 259.124ZM470.374 162.73C473.68 157.574 478.242 153.408 484.06 150.236C489.878 147.062 496.687 145.475 504.489 145.475C513.612 145.475 521.877 147.789 529.28 152.416C536.686 157.045 542.504 163.656 546.735 172.249C551.099 180.844 553.281 190.827 553.281 202.198C553.281 213.57 551.099 223.618 546.735 232.345C542.504 240.94 536.686 247.617 529.28 252.377C521.877 257.006 513.612 259.318 504.489 259.318C496.819 259.318 490.01 257.733 484.06 254.558C478.242 251.385 473.68 247.285 470.374 242.261V310.488H436.458V147.058H470.374V162.726V162.73ZM518.768 202.2C518.768 193.737 516.389 187.126 511.628 182.365C507 177.474 501.248 175.027 494.373 175.027C487.629 175.027 481.878 177.474 477.117 182.365C472.489 187.257 470.175 193.935 470.175 202.397C470.175 210.86 472.489 217.536 477.117 222.43C481.878 227.321 487.629 229.768 494.373 229.768C501.116 229.768 506.869 227.321 511.628 222.43C516.387 217.406 518.768 210.662 518.768 202.2ZM564.329 202.2C564.329 190.828 566.444 180.845 570.676 172.25C575.039 163.657 580.923 157.045 588.328 152.418C595.733 147.789 603.997 145.477 613.12 145.477C620.922 145.477 627.73 147.062 633.549 150.237C639.499 153.41 644.061 157.576 647.235 162.732V147.063H681.15V257.736H647.235V242.068C643.93 247.224 639.3 251.39 633.351 254.562C627.533 257.736 620.724 259.323 612.922 259.323C603.931 259.323 595.733 257.009 588.328 252.382C580.923 247.621 575.039 240.945 570.676 232.35C566.444 223.622 564.329 213.573 564.329 202.203V202.2ZM647.235 202.397C647.235 193.935 644.855 187.257 640.094 182.365C635.466 177.474 629.78 175.027 623.037 175.027C616.293 175.027 610.541 177.474 605.781 182.365C601.153 187.126 598.84 193.737 598.84 202.2C598.84 210.662 601.154 217.406 605.781 222.43C610.541 227.321 616.293 229.768 623.037 229.768C629.78 229.768 635.466 227.321 640.094 222.43C644.855 217.538 647.235 210.86 647.235 202.397ZM739.602 165.506C743.568 159.423 748.527 154.663 754.482 151.225C760.427 147.655 767.034 145.869 774.312 145.869V181.769H764.989C756.524 181.769 750.181 183.619 745.948 187.322C741.717 190.892 739.6 197.24 739.6 206.363V257.733H705.686V147.061H739.6L739.602 165.506ZM858.158 257.733L824.433 211.321V257.733H790.523V110.963H824.433V192.083L857.953 147.061H899.803L853.789 202.595L900.202 257.733H858.158ZM947.044 231.553H991.472V257.733H913.123V118.5H947.044V231.553ZM1000.9 202.2C1000.9 190.828 1003.02 180.845 1007.25 172.25C1011.61 163.657 1017.5 157.045 1024.91 152.418C1032.31 147.789 1040.57 145.477 1049.7 145.477C1057.49 145.477 1064.3 147.062 1070.12 150.237C1076.08 153.41 1080.64 157.576 1083.81 162.732V147.063H1117.72V257.736H1083.81V242.068C1080.5 247.224 1075.87 251.39 1069.93 254.562C1064.11 257.736 1057.3 259.323 1049.49 259.323C1040.5 259.323 1032.31 257.009 1024.91 252.382C1017.5 247.621 1011.61 240.945 1007.25 232.35C1003.02 223.622 1000.9 213.573 1000.9 202.203V202.2ZM1083.81 202.397C1083.81 193.935 1081.43 187.257 1076.67 182.365C1072.04 177.474 1066.36 175.027 1059.61 175.027C1052.87 175.027 1047.12 177.474 1042.35 182.365C1037.73 187.126 1035.41 193.737 1035.41 202.2C1035.41 210.662 1037.73 217.406 1042.35 222.43C1047.12 227.321 1052.87 229.768 1059.61 229.768C1066.36 229.768 1072.04 227.321 1076.67 222.43C1081.43 217.538 1083.81 210.86 1083.81 202.397ZM1255.32 147.061L1185.89 310.292H1149.4L1174.79 253.964L1129.77 147.061H1167.65L1193.23 216.28L1218.62 147.061H1255.32ZM1371.9 200.611C1371.9 203.784 1371.7 207.091 1371.31 210.528H1294.55C1295.09 217.404 1297.26 222.693 1301.1 226.396C1305.06 229.966 1309.88 231.75 1315.58 231.75C1324.04 231.75 1329.92 228.181 1333.23 221.04H1369.33C1367.48 228.313 1364.1 234.859 1359.21 240.675C1354.45 246.494 1348.44 251.055 1341.16 254.36C1333.89 257.666 1325.76 259.318 1316.76 259.318C1305.92 259.318 1296.27 257.004 1287.81 252.377C1279.34 247.749 1272.73 241.138 1267.98 232.545C1263.22 223.95 1260.83 213.9 1260.83 202.397C1260.83 190.895 1263.15 180.844 1267.77 172.249C1272.54 163.656 1279.15 157.043 1287.61 152.416C1296.07 147.788 1305.79 145.475 1316.76 145.475C1327.48 145.475 1336.99 147.722 1345.32 152.218C1353.65 156.714 1360.13 163.128 1364.77 171.456C1369.52 179.786 1371.91 189.504 1371.91 200.611H1371.9ZM1337.2 191.686C1337.2 185.868 1335.21 181.241 1331.24 177.802C1327.27 174.365 1322.32 172.646 1316.36 172.646C1310.68 172.646 1305.85 174.3 1301.88 177.605C1298.05 180.909 1295.68 185.603 1294.75 191.686H1337.2ZM1423.71 165.506C1427.68 159.423 1432.63 154.663 1438.58 151.225C1444.53 147.655 1451.15 145.869 1458.41 145.869V181.769H1449.09C1440.64 181.769 1434.28 183.619 1430.05 187.322C1425.83 190.892 1423.71 197.24 1423.71 206.363V257.733H1389.8V147.061H1423.71V165.506H1423.71Z" fill="#0B2347"/>
</svg>
