<?xml version="1.0" encoding="UTF-8"?><svg id="a" xmlns="http://www.w3.org/2000/svg" viewBox="0 0 640 480"><path d="M292.46264,197.08201c-7.73605-7.73605-18.22813-12.08201-29.16839-12.08201h-60.16927v110h41.25v-68.74999h13.22378c3.64689,0,7.15358,1.44854,9.73217,4.02707l14.24769,14.23842c2.57894,2.57853,4.04634,6.07605,4.04634,9.72292v40.76156h41.25v-46.457c0-10.93986-4.36487-21.43193-12.10049-29.16798l-22.31182-22.29298Z" fill="#1c2023"/><path d="M505.62498,185v40.76157c0,3.64647-1.4674,7.14397-4.04636,9.72252l-14.25773,14.23845c-2.57854,2.57894-6.07563,4.02746-9.72252,4.02746h-19.81472c4.2503-6.60267,6.59134-14.32195,6.59134-22.29339v-46.45661h-41.25v40.76157c0,3.64647-1.4674,7.14397-4.04636,9.72252l-14.25773,14.23845c-2.57854,2.57894-6.07563,4.02746-9.72252,4.02746h-13.22338v-68.74999h-41.25002v109.99999h60.16927c10.94025,0,21.44199-4.34597,29.17762-12.08202l13.77811-13.77224v25.85426h39.54425c10.94025,0,21.44199-4.34597,29.17762-12.08202l22.30263-22.29339c7.73563-7.73568,12.10049-18.22772,12.10049-29.16798v-46.4566h-41.25Z" fill="#1c2023"/><polygon points="93.12502 226.25 120.62502 226.25 120.62502 294.99998 161.87495 294.99998 161.87495 226.25 189.37497 226.25 189.37497 185 93.12502 185 93.12502 226.25" fill="#1c2023"/></svg>