<?xml version="1.0" encoding="UTF-8"?><svg id="a" xmlns="http://www.w3.org/2000/svg" viewBox="0 0 640 480"><path d="M388.06825,245.236c-.09372-.27127-.29283-.49383-.55049-.61875-.25961-.12297-.55433-.14055-.82756-.04683l-1.27266,.44309c-7.94425-5.46926-14.27819-9.7517-18.8476-12.74201,2.97669-9.43751,4.85051-15.42202,5.57855-17.82868l1.22968-.42941c.5641-.1952,.86279-.81199,.66564-1.37609l-.54267-1.55572c-.09366-.27127-.29081-.49383-.54847-.61875s-.55238-.14049-.82756-.04683l-5.25843,1.82895c-.56215,.1952-.85888,.81004-.66564,1.37414,.03908,.11124,.10349,.33764,.21669,.74562l.2869,.82567c.09372,.27127,.29283,.49383,.55042,.61875,.18152,.0878,.38258,.12492,.57973,.10343-1.70012,5.27211-3.40018,10.6242-5.06909,15.95291l-.25375,.8725-4.63773-13.3276,.81004-.283c.5641-.1952,.86279-.81199,.66564-1.37609l-.54261-1.55566c-.09372-.27134-.29087-.49383-.54853-.61875-.25961-.12303-.55433-.14055-.82756-.04689l-15.29124,5.32089c-.27134,.09372-.49383,.29283-.61875,.55042-.12297,.25961-.14055,.55629-.04683,.82762l.54261,1.55566c.19715,.5641,.81785,.86273,1.37609,.66564l.72999-.25375,4.79001,13.75506-.73201,.2557c-.27127,.09561-.49383,.29277-.61875,.55042-.12297,.25766-.14049,.55629-.04683,.82762l.55824,1.60054c.19715,.56605,.81199,.86273,1.37609,.66558l.73195-.25375,4.86614,13.98542-.73201,.2557c-.26932,.09366-.49187,.29277-.61679,.55042s-.14055,.55629-.04683,.82567l.55824,1.60054c.15423,.44699,.57387,.72608,1.02086,.72608,.11711,0,.23617-.01948,.35523-.06051l15.29118-5.32089c.55244-.19318,.85302-.79441,.67345-1.35069l-.51922-1.61812c-.08786-.2772-.28495-.50555-.54652-.63633-.25961-.13078-.5641-.15026-.83739-.05269l-.93105,.32403-4.15172-11.93588,.80424-2.80103c6.29291,4.2786,11.54744,7.79985,15.66594,10.49934-.14251,.10343-.25961,.24203-.3377,.40401-.12492,.25766-.14049,.55433-.04878,.82567l.56019,1.60249c.1952,.56605,.80808,.86273,1.37609,.66564l5.37358-1.87187c.56605-.19715,.86273-.81199,.66564-1.37609l-.55629-1.60255Zm-32.7744-13.31978c-.25961-.12688-.56215-.14635-.83348-.05269-.27524,.09568-.49969,.29667-.62461,.55824l-1.72936,3.64227-4.54602-13.06408,6.75749-2.35208,4.54212,13.04851-3.56613-1.78016Z" fill="#1c2023"/><path d="M417.18378,217.71514c-.08005-.283-.27134-.52307-.53095-.66362-.25961-.13664-.5641-.16394-.84514-.07418-.22841,.07418-.43918,.14251-.63242,.20301-.93496-2.87906-2.48866-5.67612-4.62405-8.32292-4.13609-5.18034-9.04705-7.01906-14.59635-5.47115-.08975,.02534-.17566,.06051-.25375,.10734-2.0885,1.21991-3.44316,2.67018-4.04432,4.31175l-.56996-2.03971c-.08389-.3026-.29472-.55439-.58169-.68707-.283-.13469-.61093-.1386-.89979-.00977-4.82902,2.1451-7.59097,6.60912-8.21167,13.26318-.24203,2.44574-.14635,5.20568,.28501,8.21747l-.82371,.22841c-.27524,.07608-.50946,.26151-.65001,.50939-.14055,.24984-.17566,.54462-.09952,.82176l.4567,1.63375c.16009,.57582,.75539,.91353,1.33122,.75148l.71247-.19911c1.66886,5.53954,4.59865,9.5526,8.71521,11.93002,2.46723,1.43471,5.08277,2.15297,7.81932,2.15297,1.51664,0,3.06644-.22054,4.64945-.66362,4.6221-1.28829,8.19409-4.05024,10.62225-8.21753,2.46919-4.31566,3.07426-9.21495,1.80355-14.57877l.68512-.18934c.57582-.16003,.91157-.75734,.75148-1.33115l-.46843-1.6826Zm-28.7418,3.14258c-.51916-.2869-1.17112-.10538-1.46389,.40798l-1.88359,3.29479c-.29277-2.43988-.21474-4.94613,.23421-7.47967,.58755-3.10552,1.65524-5.41071,3.17964-6.8746l3.56808,12.67368-3.63445-2.02219Zm23.01098,11.94369c-1.8621,3.6618-4.63572,5.96308-8.48295,7.03664-.71051,.19904-1.45028,.34741-2.21153,.44309l-3.93112-13.95221,.78274-.21864c.27714-.07614,.51141-.25961,.6519-.51141,.14055-.24984,.17572-.54652,.09958-.8217l-.45481-1.6318c-.07614-.2772-.25961-.51141-.50946-.65392-.24984-.14055-.54847-.17566-.82371-.09952l-.78659,.22054-2.26422-8.11404c1.56738,1.30191,2.98444,1.298,3.93698,1.03253,1.94801-.54456,2.95129-2.3657,2.98255-5.41651,.00385-.53479-.37672-.9896-.9018-1.07942l-1.55761-.26737c-.33575-.05855-.67535,.04488-.92324,.27714-.24789,.23031-.37281,.56605-.33575,.90376,.082,.78854,.04097,1.66886-.32793,1.77229-.18152,.05275-.44309-.09561-.62656-.23031-.35132-.2557-.57772-.58169-.69293-.99937-.12297-.43918-.49187-1.76453,2.04173-3.48022,2.68581-.82567,5.1608-.41189,7.5558,1.25899,1.90112,1.34874,3.65588,3.40604,5.2116,6.11725,.81779,1.43074,1.43464,2.69754,1.84061,3.77885l-.73585,.20497c-.57387,.16003-.90962,.75539-.74953,1.33122l.45481,1.63375c.07608,.27714,.25955,.51135,.50939,.6519s.54658,.17566,.82176,.09958l.74562-.20692c.82371,3.90768,.38063,7.5773-1.31949,10.92087Z" fill="#1c2023"/><path d="M449.28186,192.60101c-.23421-.16394-.52509-.23031-.80808-.18152l-30.37159,5.25062c-.28306,.04878-.53486,.20887-.70075,.44309-.16394,.23421-.23031,.52502-.18152,.80808l.28104,1.62203c.10154,.5895,.65978,.9857,1.24922,.88227l.80418-.1386,2.49068,14.40116-.80228,.1386c-.58944,.10148-.98374,.65972-.88221,1.24922l.30644,1.76838c.10148,.5895,.66167,.9799,1.24922,.88031l.80418-.1386,2.50625,14.49683-.80418,.13854c-.5895,.10154-.98185,.66173-.88031,1.24922l.28886,1.67283c.09177,.52502,.54847,.89784,1.06379,.89784,.06051,0,.12297-.00586,.18543-.01752l15.74599-2.72098c.28306-.04878,.5329-.20887,.69879-.44309s.23031-.52502,.18152-.80808l-.28886-1.67081c-.04878-.2811-.20692-.5329-.44113-.69879-.23421-.16784-.52509-.23031-.80808-.18152l-.80418,.1386-2.5082-14.49677,4.0014-.69293,.28104,.98765c.08005,.27909,.26938,.51532,.52313,.65385,.2557,.1386,.55824,.16791,.83348,.08395l1.46194-.44895c.27915-.08585,.51141-.27909,.64415-.5387,.13469-.25766,.15808-.56019,.06637-.83544-.27524-.82371-.37867-1.26289-.41769-1.48734-.10935-.63047,.08585-1.52251,.56404-2.58239,.13469-.29277,.12883-.62852-.01362-.91933-.14055-.28886-.40212-.49969-.71442-.57582l-1.65323-.40401c-.36115-.08591-.73787,.01557-1.00523,.27127-.39821,.38063-.64219,.9545-.76711,1.81527l-4.47764,.77298-2.49068-14.40116,12.90991-2.231,.20497,1.18089c.04878,.2811,.20881,.5329,.44113,.69879,.23421,.16589,.52698,.23031,.80808,.18152l1.45412-.2518c.5895-.10148,.98185-.65972,.88227-1.24922l-.66948-3.86866c-.04683-.28306-.20692-.53486-.44113-.70075Zm-19.98746,18.14685c-.23427-.17761-.53681-.25375-.82371-.20497-.28892,.04683-.54847,.20887-.71638,.4509l-2.29933,3.31238-2.35593-13.63209,7.00929-1.21215,2.35397,13.61652c-1.44051-1.04626-2.50234-1.82699-3.16792-2.33059Z" fill="#1c2023"/><path d="M487.94901,190.39241c-.21278-.1952-.49773-.29277-.77884-.28495l-30.79123,1.3546c-.2869,.01368-.55629,.1386-.74953,.34943-.1952,.21272-.29667,.49187-.28306,.77878l.07223,1.64743c.01368,.2869,.1386,.55629,.35138,.74953,.21077,.19324,.49187,.29277,.77682,.283l.81394-.03706,.64219,14.6002-.8159,.03517c-.5953,.02534-1.05988,.53089-1.03253,1.1282l.07803,1.78987c.01368,.28697,.1386,.55824,.34943,.75148,.21077,.1952,.49383,.28886,.77878,.28306l.8159-.03517,.64415,14.69783-.81394,.03517c-.59732,.02729-1.05988,.53284-1.03259,1.12814l.07418,1.6923c.00977,.28697,.13664,.55629,.34943,.75148,.19904,.18347,.46061,.28501,.72999,.28501,.01563,0,.0312,0,.04683-.00195l15.96658-.70075c.28495-.01172,.55629-.1386,.74953-.34937,.19324-.21278,.29472-.49187,.283-.77884l-.07412-1.69621c-.01368-.28495-.1386-.55433-.34943-.74758-.21272-.1952-.48796-.29081-.77878-.283l-.8159,.03511-.6461-14.69783,4.05605-.17761,.15423,1.015c.04292,.2869,.201,.54652,.43527,.71632,.23812,.16986,.52698,.23818,.81785,.18738l1.50877-.25955c.28501-.0508,.54072-.21278,.70465-.45286,.16595-.24007,.22646-.53681,.1698-.82176-.16589-.84905-.21272-1.298-.22249-1.52641-.02735-.64018,.27915-1.50101,.88617-2.49062,.16784-.27323,.20692-.60898,.10343-.91151-.10343-.30449-.33764-.54847-.63828-.66368l-1.58686-.60898c-.34161-.13078-.73005-.08005-1.02673,.13664-.44504,.32598-.76516,.86664-.99742,1.70793l-4.53815,.19904-.64024-14.60215,13.08752-.57387,.05269,1.19457c.02534,.59725,.55042,1.0677,1.1282,1.03259l1.47366-.06441c.28501-.01172,.55629-.13664,.74953-.34943,.19324-.21077,.29472-.48992,.28306-.77682l-.17181-3.92532c-.01362-.28495-.13854-.55433-.34937-.74758Zm-22.12871,15.46104c-.20887-.20497-.46653-.32598-.7905-.3084-.29478,.00977-.57192,.1386-.76907,.35718l-2.69949,2.99226-.60702-13.81947,7.10686-.3123,.60702,13.80585c-1.30191-1.22583-2.2564-2.13539-2.8478-2.71512Z" fill="#1c2023"/><path d="M511.23321,192.06329l-15.92555-1.32926c-.283-.02931-.56996,.06832-.78854,.2518-.21864,.18543-.35523,.4509-.38063,.73781l-.13078,1.59278c-.04878,.59335,.3943,1.11648,.98765,1.16526l.81394,.06832-1.20629,14.46752-.81584-.06832c-.28501-.02735-.56801,.06832-.78665,.25375-.22054,.18347-.35718,.44889-.37867,.73585l-.15026,1.78596c-.04885,.59536,.39229,1.11843,.98765,1.16728l.81394,.06826-1.23169,14.75638-.81394-.06631c-.2869-.0254-.5699,.06631-.78854,.2518-.21858,.18543-.35523,.44889-.37867,.73585l-.14055,1.69035c-.02534,.28495,.06637,.56801,.2518,.78659,.18347,.2206,.44895,.35718,.73591,.38063l15.9236,1.32926c.02925,.00391,.06051,.00391,.08975,.00391,.5583,0,1.03063-.4255,1.07551-.9896l.14251-1.6923c.0254-.28697-.06637-.56996-.2518-.78861-.18543-.21858-.44895-.35523-.73585-.38063l-.81199-.06637,1.23163-14.75638,.81394,.06832c.27915,.02345,.56801-.06832,.78659-.25375,.21864-.18543,.35529-.44889,.37867-.7339l.14837-1.78987c.05074-.59536-.3904-1.11648-.98765-1.16728l-.81004-.06637,1.20623-14.46746,.81394,.06832c.2811,.02338,.56801-.06832,.78665-.2518,.21858-.18738,.35523-.4509,.37867-.73781l.13469-1.59474c.04878-.59335-.3943-1.11648-.98771-1.16526Zm-5.85959,17.14937l-2.53549-3.07224c-.18543-.2245-.45286-.36506-.74171-.38844-.03126-.00391-.06246-.00586-.09177-.00586-.25766,0-.5075,.09171-.70465,.26157l-3.05863,2.62726,1.15165-13.78436,7.1303,.59536-1.14969,13.76672Z" fill="#1c2023"/><path d="M546.10302,236.32071c.14635-.57582-.20106-1.16142-.77493-1.31168l-1.38781-.36109c-.27909-.07418-.57387-.03126-.81981,.11515-.24789,.1444-.42746,.38258-.49969,.65972l-.27518,1.06574-12.6815-3.29284,3.68714-14.19423,3.97014,1.03253-.18543,.96036c-.05465,.28495,.00782,.58169,.17566,.81981,.164,.24007,.4197,.40206,.70661,.4509,.79245,.13274,1.3234,.19904,1.67081,.20686,.56019,.03321,1.00328-.3689,1.09309-.89979,.09952-.60122,.19324-1.06379,.27518-1.38391,.21474-.81785,.73591-1.60444,1.55377-2.3345,.23812-.21272,.37086-.52112,.35913-.84124-.00977-.32012-.16009-.61875-.41384-.8159l-1.34092-1.05017c-.42746-.33373-1.04034-.29863-1.42683,.08395-.3904,.38844-.71638,.75148-.9838,1.10091l-4.4581-1.15751,3.67151-14.14545,12.6815,3.2929-.30254,1.1594c-.07028,.2772-.02925,.57192,.11515,.81981,.14446,.24789,.38258,.4255,.65978,.49773l1.42878,.37086c.57582,.14837,1.16526-.19715,1.31754-.77298l.98765-3.80229c.07223-.27714,.02925-.57192-.1132-.81981-.14641-.24789-.38453-.42746-.66173-.49969l-29.83093-7.74709c-.57381-.15026-1.16917,.19715-1.31748,.77493l-.41579,1.59663c-.07223,.2772-.0312,.57192,.11515,.81981,.14446,.24594,.38258,.42746,.65978,.49773l.78854,.20497-3.67151,14.14545-.79245-.20497c-.57582-.15227-1.16728,.19715-1.31558,.77493l-.4509,1.73523c-.07223,.27714-.03321,.57387,.1132,.82176,.14641,.24594,.38453,.4255,.65972,.49773l.79056,.20491-3.68519,14.19234-.79056-.20497c-.27714-.07223-.57186-.03126-.81981,.1132-.24594,.14641-.4255,.38258-.49773,.66167l-.43918,1.6884c-.14831,.57973,.19715,1.16728,.77493,1.31949l29.79191,7.73543c.08975,.02338,.18152,.03511,.27127,.03511,.48021,0,.91939-.32207,1.04626-.80808,.64213-2.47505,.97007-3.74374,.98765-3.80816Zm-17.6667-26.78989c-.09366-.02534-.19129-.03902-.2869-.03902-.19324,0-.38453,.05269-.55629,.15417l-3.45684,2.06902,3.47631-13.39,6.88437,1.78987-3.47241,13.37443c-.88227-1.5498-1.52837-2.69949-1.92456-3.43144-.14055-.25961-.38063-.44895-.66368-.52704Z" fill="#1c2023"/><path d="M639.44377,242.80363c-.63999-1.3869-2.18881-2.16854-3.72634-1.78395-20.20049,5.0766-45.61672,8.89648-63.88086-6.202,2.34262-10.81775,6.45728-21.81317,14.65369-32.95281,.53107-.72224,.71809-1.59162,.5917-2.41289,.58358-.27195,1.09395-.71509,1.43929-1.31595,.89094-1.55181,.35657-3.53249-1.19573-4.42391-93.05934-53.46853-198.78004-18.24546-257.77687,2.38939,.87097-8.03229,2.40093-15.89509,4.64341-23.36889,.23055-.76736,.16803-1.59333-.17487-2.31771-.09378-.19782-2.34457-4.88159-6.87741-8.4131-31.30783-23.3021-81.33069,3.84216-134.29062,32.57878-57.86057,31.39672-117.69107,63.86218-155.2335,31.89153-.1778-.15142-.32189-.28574-.43814-.40297,.66625-.33654,1.84293-.76052,3.51832-1.01549,.25027-.0381,.48497-.11118,.71039-.20106,8.29068-1.10152,16.58008-3.38137,25.99573-7.16968,.07718-.03077,.15289-.06496,.22713-.1016,12.47409-6.16964,20.94873-17.95794,23.25667-32.37656,2.72605-18.29839-5.45015-35.05474-20.3284-41.68841-12.35686-5.59815-28.69314-4.00482-40.68953,3.98772-8.56794,5.87559-13.86716,16.42762-14.17635,28.26575-.16803,12.05353,5.14877,22.55183,14.22128,28.08258,.0718,.04396,.14556,.08499,.22078,.12309,7.93881,4.02826,18.28862,4.08151,27.68449,.14605,.08255-.03468,.16363-.07278,.24325-.1143,8.70861-4.52942,13.41778-14.13385,11.99736-24.46852-.01172-.08304-.02638-.16559-.04396-.24716-1.53911-7.08011-6.2263-13.22533-11.94021-15.65636-3.22574-1.37157-8.27438-2.25665-14.09184,1.24555-4.61783,2.14284-7.10356,7.11137-6.34402,12.73199,.61496,4.53332,5.08332,8.98556,9.75781,9.72264,2.00119,.31359,6.99024,.34729,10.10949-6.1501,.77469-1.61336,.09476-3.5486-1.5186-4.32329-1.61385-.77469-3.5486-.09476-4.32329,1.5186-1.36864,2.84914-2.7407,2.63569-3.25846,2.55314-1.988-.3131-4.13328-2.62738-4.34527-4.19043-.28379-2.09986,.26376-4.93776,2.7407-6.02506,.13726-.06008,.27011-.12993,.39809-.20857,2.83888-1.75012,5.64358-2.05687,8.33885-.91096,3.75082,1.59528,7.00147,5.985,8.11759,10.94768,.98277,7.4909-2.32943,14.39322-8.46781,17.65071-7.58615,3.13879-15.79214,3.1598-22.00965,.05568-7.0298-4.34429-11.14159-12.70415-11.00776-22.35352,.25448-9.72899,4.50206-18.34577,11.32672-23.02661,10.0118-6.66981,24.15103-8.09072,34.40364-3.44554,12.20642,5.44233,18.86793,19.43649,16.581,34.78805-1.95967,12.24256-9.1067,22.26023-19.61575,27.50327-9.11891,3.65973-17.07665,5.82479-25.01644,6.80969-8.44277,.75881-20.02495,3.76194-27.95033,13.68722-21.85286,27.36553-10.25163,71.04096,7.90413,85.97978,14.29211,12.06672,31.34006,18.06394,51.60594,18.06296,10.54715,0,21.96716-1.62459,34.32011-4.86401,31.20281-8.18255,64.07124-25.28423,95.85726-41.82225,14.57352-7.58273,28.91319-15.04188,42.58893-21.34627,1.35741,11.89289,3.69068,23.11056,6.95232,33.4224,.65465,3.91452,2.78552,7.53712,6.36013,10.63983,10.76255,9.3392,35.29653-.15337,72.43305-14.52168,28.61255-11.07028,64.22071-24.84658,101.27664-32.18313,18.11321-3.5853,35.04729-5.34788,50.96534-5.29513-2.93712,9.97254-5.27241,28.32064-3.10973,37.2438,.77804,5.59149,4.77059,9.72929,10.92765,11.19532,3.22965,.76492,7.05032-.35657,12.3383-1.91376,8.59383-2.53018,20.36454-5.99428,35.01029-2.54972,13.82026,3.25407,19.02521,9.18095,26.23085,17.38303,2.39928,2.73045,4.87964,5.55565,7.93539,8.59285,6.23656,6.1965,15.43899,9.56194,24.51248,9.56096,4.82102,0,9.6059-.95053,13.88767-2.93071,.2521-.11643,.47343-.26908,.67938-.43662,.24649-.04494,.49181-.11192,.73127-.21791,.07638-.0337,.15844-.07217,.23653-.10734,.73622-.1886,1.48001-.41976,2.23699-.72987,.57918-.23714,1.04474-.62839,1.38678-1.10054,7.56637-4.19904,18.41037-12.40345,22.00226-22.95963,1.98898-5.84579,1.50639-11.54408-1.4341-16.93757-2.90434-5.32217-10.32881-9.6313-18.05514-10.4773-6.00894-.65941-11.02339,.93978-14.13092,4.5006-3.87636,4.44101-4.90308,10.4519-2.67965,15.68615,1.98312,4.6696,6.10272,7.60422,11.02046,7.8504,4.21046,.2032,7.98619-1.77797,10.06407-5.31827,1.93622-3.29803,2.02415-7.28868,.22469-10.16469-1.65781-2.64936-4.66081-4.00531-8.26754-3.72787-1.78383,.1397-3.11632,1.69884-2.9776,3.48364,.1397,1.7848,1.71251,3.12121,3.48364,2.9776,1.14591-.08988,1.91962,.14458,2.26739,.70337,.43668,.69849,.46794,2.10718-.31945,3.44749-.49627,.84698-1.71251,2.26446-4.15184,2.12574-2.41393-.12016-4.37458-1.54546-5.37883-3.91055-.97593-2.29572-1.06776-5.83798,1.59724-8.89178,2.25665-2.58587,6.31862-2.56437,8.54303-2.32015,5.47262,.59982,11.21388,3.73568,13.07098,7.13922,2.06518,3.78843,2.38853,7.6306,.98863,11.7463-3.18678,9.36711-14.43364,17.36746-21.66163,20.73778-1.54925,.28434-2.57023-.01807-3.25334-.32439-4.6188-2.06127-7.83575-11.082-10.94621-19.80478-.5793-1.62557-1.16154-3.25798-1.75843-4.86596-1.16935-3.15149-1.86979-6.66053-2.54679-10.05527-1.2309-6.16817-2.58098-12.93323-7.12065-17.7396,14.66333-4.06099,39.01267-12.98794,55.37288-30.34069,1.06049-1.1246,1.15513-2.80512,.32378-4.03352Zm-440.84848,41.01911c-31.46902,16.37389-64.00969,33.30462-94.50962,41.30253-33.89906,8.89081-60.1011,5.0037-80.1335-11.90749-8.06776-6.63904-14.65014-20.12227-16.77003-34.34893-1.42335-9.55705-2.04613-27.79976,9.78125-42.61012,3.76597-4.71601,8.63779-7.53779,13.46516-9.20195,.3087,1.30172,1.15568,2.7915,2.9864,4.34967,12.31046,10.48267,26.50292,14.77812,41.96878,14.77616,35.95349-.00293,78.75606-23.22443,120.55633-45.90619,51.08818-27.7221,99.34285-53.90704,127.27352-33.11998,2.15798,1.68223,3.63799,3.80406,4.38435,5.03057-7.09819,24.63704-7.12749,53.07911-.33019,78.65056-30.44229-18.12646-78.21046,6.72892-128.67245,32.98517Zm128.29048-25.46496c2.15407,1.69102,3.73861,3.63018,4.5807,5.60938l.00256,.0047c.50909,1.3096,.85534,3.14124-.15008,4.81632-1.19182,1.98702-3.95646,3.28142-7.7869,3.64581-4.72187,.45035-9.34995-1.34324-14.24131-3.24332-4.05024-1.57477-8.23872-3.20229-12.78719-3.66046-13.83443-1.38977-34.53393,10.12763-42.306,22.84722-1.7097-7.28813-2.98023-14.96654-3.80822-22.95432,31.24091-13.7542,58.54404-20.42688,76.49642-7.06534Zm103.05362,.86847c-37.60886,7.44596-73.51009,21.33559-102.35611,32.49574-31.14078,12.04914-58.03251,22.45414-65.84774,15.6715-1.97725-1.71605-3.27245-3.54396-3.90334-5.50382-.00415-.31933-.04018-.64177-.14446-.96133-.07998-.24526-.15154-.49895-.23043-.74532-.23446-1.91302,.11363-3.94761,1.05396-6.12525,4.89673-11.34088,25.15431-23.30405,37.34265-22.07999,3.67218,.37025,7.27501,1.77015,11.08884,3.25309,5.3803,2.09155,10.9467,4.24856,17.20475,3.6546,5.92981-.56465,10.44994-2.96588,12.72808-6.76213,1.85374-3.08928,2.05999-6.80798,.61881-10.50862-.00824-.02357-.0102-.04775-.01899-.07125-6.80945-18.13073-9.66494-38.58882-8.51067-58.37143,56.8888-19.9319,161.14945-55.95231,252.46819-5.32804-.05318,.06191-.11405,.11387-.16327,.18067-15.50347,21.07182-17.45142,42.06256-19.17077,60.58223-.55787,6.01095-1.1061,11.81792-2.05406,17.43939-2.95294-4.27841-7.91128-8.67546-15.05837-11.15594-33.06235-12.5923-70.6966-14.44451-115.04708-5.66409Zm112.78554,11.73653c.03126,.0127,.0635,.02442,.09574,.03517,7.64232,2.6396,12.03448,7.85333,13.59655,11.85278,.90461,2.31429,.78055,3.96818,.36341,4.74287-.60666,1.12832-3.7054,3.06064-19.34759-3.36837l-1.10292-.45035c-10.85438-4.36969-29.02187-11.67987-43.58751-6.85884-2.92155,.96799-5.5719,2.69345-7.75949,4.87475,.61374-7.5867,2.09699-15.95828,3.88313-21.22129,.01673-.04927,.02003-.09928,.03425-.14879,19.37573,.70899,37.22145,4.21363,53.82443,10.54208Zm29.47515,5.12093c.0254,.29796,.32238,2.78222,3.22867,2.97174,5.93372,2.7705,7.3385,8.38672,9.08326,17.13002,.72779,3.64288,1.47903,7.40884,2.82716,11.04195,.58712,1.58161,1.15959,3.18764,1.7301,4.78781,3.03078,8.49913,5.92474,16.61519,10.73367,21.07561-8.52337,1.16081-17.79932-1.54546-23.7392-7.4478-2.89945-2.88284-5.30654-5.62306-7.63548-8.2734-7.39223-8.41603-13.77728-15.68517-29.61387-19.41402-16.31723-3.83826-29.5621,.06057-38.32591,2.64155-3.83337,1.12832-7.45476,2.20194-9.00803,1.82486-3.09129-.73591-4.99876-2.29206-5.73412-4.61093-.00873-.32091-.04976-.64457-.15954-.96427-.04457-.12968-.08438-.27353-.12541-.4136-.02088-.18787-.05764-.36548-.06606-.56135-.19831-4.59731,3.33417-10.79968,9.38512-12.80331,12.30704-4.07662,29.75748,2.94537,39.1299,6.71817l1.05994,.43277c7.3465,3.0201,22.59567,9.28016,27.45082,.55433,.55299-.39436,.98777-.96408,1.20764-1.66214,3.04306-9.64986,3.95549-19.48924,4.92262-29.90597,.52771-5.68503,1.06269-11.42972,1.96449-17.22819,10.43413,7.47594,22.41965,10.04209,34.43691,10.04209,7.22335,0,14.45153-.92904,21.36001-2.2594-17.4229,13.77661-39.86001,20.27662-50.3643,22.72163-.17487-.00782-.35071,.00684-.52557,.03126-3.384,.48259-3.24918,3.25602-3.22281,3.57058Z" fill="#1c2023"/><path d="M82.99859,303.48764l-1.51664-.0508c-.27909-.03315-.5641,.09372-.77493,.29087-.20881,.1952-.33178,.46647-.34155,.75344l-.03511,1.05206-17.53397-.58755c3.81206-6.76335,6.53689-11.59231,8.17651-14.49482l2.16854,.07223c.28697,.01758,.5641-.09372,.77493-.29081,.20887-.1952,.33184-.46653,.34161-.75344l.0566-1.69621c.01948-.59536-.44895-1.097-1.04431-1.11648l-.08389-.00195c3.65197-6.23833,6.44519-10.9873,8.37366-14.24699l1.25703,.04298c.26352,.01758,.5641-.09568,.77291-.29087,.21083-.19709,.3338-.46647,.34356-.75344l.05465-1.64737c.01954-.59732-.44699-1.097-1.04425-1.11843l-35.05816-1.21997c-.26151-.02338-.56605,.09177-.77682,.28892-.20692,.1952-.33184,.46647-.34161,.75344l-.12688,3.82959c-.00971,.28697,.09372,.5641,.29087,.77493,.1952,.20887,.46647,.3338,.75344,.34155l1.47561,.04689c.59921,.04683,1.09694-.44504,1.11648-1.04236l.03321-1.05206,15.90406,.53486c-4.28244,7.34693-7.0444,12.12717-8.2292,14.24888l-2.11976-.07223c-.60122-.06051-1.09505,.44699-1.11648,1.0462l-.0566,1.69426c-.01954,.59536,.44693,1.09505,1.04425,1.11648l.07614,.00195c-2.69168,4.78024-5.4888,9.64241-8.33464,14.48895l-1.2102-.03902c-.60702-.06051-1.09694,.44699-1.11843,1.0423l-.05855,1.74506c-.00977,.2869,.09568,.56599,.29081,.77487,.19715,.20887,.46653,.33184,.75344,.34161l36.6626,1.22968h.03511c.27524,0,.53876-.10343,.73982-.29081,.20881-.19715,.33178-.46849,.34155-.75539l.12883-3.87648c.01954-.59536-.44699-1.09505-1.04425-1.11453Zm-12.60347-31.44325l6.93321,.23037-8.04774,13.63795-1.05793-2.73466c-.11711-.30058-.35913-.53284-.66362-.63627-.1132-.03712-.22841-.05666-.34552-.05666-.19715,0-.39424,.05666-.56605,.16204-1.39948,.86273-2.62335,1.61812-3.67542,2.26813,2.88883-5.073,5.37749-9.38866,7.42307-12.8709Z" fill="#1c2023"/><path d="M122.77056,277.91766l.76516-.25174c.27127-.08786,.49773-.2811,.62845-.53876,.12688-.25375,.15032-.55238,.06246-.82371l-.52893-1.61226c-.18543-.56801-.79831-.88031-1.36437-.69098l-.77493,.25375-1.42292-4.341c-.24594-.75148-.37672-1.14579-.38649-1.17509l-2.72874-8.32487,.77487-.25564c.27329-.08786,.49969-.28306,.62852-.53876,.13078-.2557,.15227-.55238,.06246-.82567l-.51336-1.56543c-.18543-.56801-.79636-.87641-1.36437-.69098l-4.96756,1.62984c-.56801,.18543-.87641,.79642-.69098,1.36443l.51336,1.56543c.18543,.56599,.79441,.87641,1.36437,.69092l.77291-.25369,4.50304,13.85262-.73781,.24203c-.56801,.18738-.87641,.79831-.69098,1.36437l.52899,1.61226c.18738,.56605,.79636,.87836,1.36437,.69098l.73585-.24203,.96036,2.92595c1.11257,4.15947,.72804,7.5519-1.17112,10.35677-1.462,2.10804-3.43534,3.54854-6.03531,4.39955-.69684,.22841-1.22577,.3377-1.62007,.38063l-4.56941-13.93462,.77688-.25375c.56801-.18738,.87641-.79831,.69098-1.36632l-.53095-1.61226c-.0878-.27134-.283-.49773-.5387-.62852-.2557-.12883-.55042-.15032-.82567-.06246l-.77493,.2557-4.53619-13.84096,.77298-.2557c.56599-.18347,.87445-.78854,.69482-1.35265l-.54652-1.66886c-.18543-.56605-.79441-.87836-1.36437-.68902l-15.42391,5.05542c-.27329,.08975-.49969,.283-.62852,.54066s-.15032,.55433-.06051,.82762l.54261,1.65524c.18738,.56599,.79636,.87445,1.36242,.68707l.73585-.24014,4.52258,13.79804-.7339,.24007c-.27329,.0878-.49969,.283-.62852,.5387-.13078,.2557-.15227,.55238-.06246,.82762l.52893,1.61226c.18543,.56605,.79837,.87445,1.36443,.68902l.7339-.24203,.91737,2.79901c1.544,4.70801,4.37421,7.98137,8.40492,9.72441,1.97725,.86468,4.02674,1.29409,6.13288,1.29409,1.75086,0,3.54268-.29667,5.35991-.89399,4.00921-1.31363,7.03658-3.69105,9.00217-7.06784,2.19004-3.78471,2.52969-8.06135,1.00133-12.72051l-.98765-2.91423Zm-24.46712,.16595c-.2557-.13078-.55629-.15423-.82957-.06637-.27518,.08975-.50164,.283-.63242,.54261-.71045,1.41517-1.30972,2.61749-1.79964,3.60325l-4.2883-13.08948,6.83943-2.24077,4.29227,13.09919-3.58176-1.84842Z" fill="#1c2023"/><path d="M152.88057,281.70634c-.24594-.54267-.88617-.7847-1.42878-.54267l-.74758,.33575-6.06456-13.50912,.74171-.3338c.26157-.11711,.46653-.33373,.56996-.60312,.10148-.26743,.09171-.5641-.0254-.82567l-.73585-1.6357c-.24398-.54652-.88422-.78659-1.42878-.54456l-.74367,.3338-5.94941-13.24365,.74562-.3338c.54456-.24398,.78861-.88422,.54261-1.42878l-.65581-1.46004c-.24398-.54456-.88617-.78464-1.42878-.54261l-14.57681,6.54666c-.54456,.24594-.78854,.88617-.54261,1.42878l.65385,1.46004c.11906,.26157,.33575,.46647,.60312,.56801,.26938,.10343,.56605,.09366,.82762-.02345l.74367-.33569,5.94941,13.24365-.74367,.33373c-.26157,.11717-.46647,.3338-.56996,.60122-.10148,.26938-.09171,.56605,.0254,.82762l.7339,1.63564c.24594,.54462,.88422,.78665,1.42878,.54462l.74562-.3338,6.06847,13.50717-.74562,.33575c-.26157,.11711-.46647,.33373-.56801,.60312-.10148,.26743-.09366,.56605,.0254,.82567l.69684,1.5498c.17957,.40016,.57387,.63633,.9857,.63633,.14837,0,.29863-.03126,.44309-.09568l14.57681-6.54666c.26157-.11711,.46647-.3338,.56801-.60312,.10148-.26743,.09171-.5641-.0254-.82762l-.69488-1.54784Zm-17.13771-17.95165c-.27127-.10734-.57192-.10154-.83733,.01758-.26547,.11906-.47044,.3396-.57192,.61093l-1.40344,3.7808-5.6683-12.62099,6.52712-2.9298,5.66055,12.60145-3.70668-1.45998Z" fill="#1c2023"/><path d="M183.95291,267.10809l-.39424-.77493c-.13078-.2557-.35724-.44895-.62852-.53675-.27329-.08591-.56996-.06441-.82567,.06441l-.41378,.21077c-1.19457-6.08599-2.19394-11.10044-2.99232-15.03938l1.29611-.65978c.53284-.27127,.74367-.92128,.47233-1.45412l-.76907-1.51274c-.13268-.25766-.36304-.45481-.64213-.54267-.2772-.08585-.57973-.0566-.83544,.082l-.38453,.20887-3.00789-14.8813,.88227-.44895c.53095-.27134,.74367-.91933,.47435-1.45028l-.74953-1.47171c-.12883-.2557-.35529-.4509-.62852-.53876-.27329-.0878-.56996-.06441-.82567,.06441l-4.69433,2.3911c-.5329,.27134-.74367,.92128-.47429,1.45418l.74758,1.4678c.12883,.2557,.35523,.44895,.62656,.53876,.27323,.08975,.57186,.06637,.82561-.06441l.38844-.19715,3.02938,14.8559-.92134,.46849c-.25375,.12883-.44693,.35523-.53675,.62852-.08981,.27323-.06637,.56996,.06441,.82567l.76907,1.51268c.13078,.25375,.35718,.44895,.62852,.53681,.26541,.08585,.55433,.06832,.80613-.05465,.74562,3.59733,1.40143,6.7926,1.96944,9.5877-2.20951-2.40276-4.4269-4.80557-6.65009-7.20638l.11711-.05666c.53089-.27127,.74367-.92324,.47233-1.45412l-.79245-1.55566c-.12883-.25766-.35523-.44895-.62852-.53876-.27329-.0878-.56996-.06441-.82567,.06441l-.97983,.49969c-2.82246-3.22256-6.13679-6.98389-9.94104-11.28392l.44504-.22646c.2557-.13078,.44889-.35718,.5387-.63047,.08786-.27127,.06441-.56801-.06637-.82365l-.74758-1.46786c-.27134-.53284-.92128-.74758-1.45418-.47233l-14.54165,7.39962c-.2557,.12883-.4509,.35718-.5387,.62852-.08786,.27329-.06441,.56996,.06435,.82567l.74953,1.46975c.27134,.53095,.91939,.73982,1.45418,.47239l.94082-.47819,9.93518,11.34051-.41573,.21083c-.25375,.13078-.44699,.35718-.53675,.62852-.08786,.27323-.06637,.57192,.06435,.82567l.77102,1.51268c.26938,.53095,.91933,.73976,1.45223,.47239l1.27071-.6461c3.5251,3.73983,7.04635,7.46996,10.56174,11.18635l-.365,.18543c-.25961,.13274-.45481,.365-.54072,.64219-.0878,.27909-.05855,.57973,.08005,.83739l.80808,1.49124c.1952,.36109,.56605,.56605,.95059,.56605,.16394,0,.33178-.03517,.48796-.11521l14.56314-7.3567c.25766-.13078,.45286-.35718,.54066-.63047,.08981-.27323,.06441-.57192-.06637-.82762-.09561-.18738-.2518-.46256-.43332-.75924Zm-24.38707-14.86378c-.28886-.06246-.58944,0-.83147,.16595-.24398,.16784-.40798,.4255-.45676,.71632-.23421,1.42878-.43527,2.63117-.60312,3.61296-4.30009-4.909-7.48168-8.53564-9.54289-10.8799l6.53695-3.32599c2.27393,2.61359,5.34037,6.16799,9.14272,10.59685l-4.24544-.88617Z" fill="#1c2023"/><path d="M225.33231,242.27305c-.27134-.53095-.92134-.74367-1.45418-.46849l-1.27657,.65392c-.53089,.27323-.73976,.92324-.46843,1.45418l.50164,.98179-11.65679,5.9767-6.68917-13.04845,3.64813-1.87187,.50164,.83928c.14831,.24984,.39229,.42947,.6773,.49773,.283,.07028,.58169,.01954,.82762-.13658,.68121-.42941,1.12039-.73201,1.38391-.95254,.41183-.34747,.50549-.94668,.21858-1.40149-.32403-.51526-.56215-.91737-.71436-1.21796-.38649-.75148-.51922-1.68644-.39626-2.77563,.03706-.31817-.07028-.63633-.29087-.86664-.22054-.23226-.53089-.35523-.85101-.3338l-1.69816,.1074c-.54456,.03511-.97593,.46843-1.00914,1.01299-.03511,.55049-.03511,1.0404-.00391,1.47763l-4.09897,2.10022-6.66768-13.00553,11.65673-5.9767,.54847,1.0677c.13078,.25375,.35724,.44699,.62852,.53479,.27329,.08786,.56996,.06246,.82567-.06637l1.31168-.67535c.53095-.27134,.74171-.92324,.46849-1.45418l-1.79189-3.4939c-.12883-.2557-.35523-.44895-.62852-.53675-.27518-.08786-.57186-.06441-.82561,.06637l-27.42622,14.06345c-.53089,.27127-.73976,.92324-.46843,1.45418l.75148,1.4678c.13078,.25375,.35913,.44895,.63047,.53681,.27127,.08585,.56996,.0624,.82561-.06832l.72615-.37086,6.66768,13.00357-.72608,.37086c-.2557,.13078-.44895,.35913-.53681,.63236-.0878,.27134-.06441,.56801,.06637,.82371l.81981,1.59669c.13078,.2557,.35724,.44895,.63047,.53675,.27329,.08591,.56996,.06246,.82567-.06832l.72413-.37086,6.69112,13.04656-.72804,.37281c-.25375,.13072-.44699,.35718-.53479,.63047-.08786,.27323-.06441,.5699,.06637,.82561l.79831,1.55175c.19129,.37287,.56996,.58755,.96225,.58755,.16595,0,.3338-.03706,.49187-.11906l27.3891-14.04196c.53095-.27134,.74178-.9233,.47044-1.45418l-1.79378-3.49585Zm-30.16863-8.30143c-.27714-.09958-.58169-.08005-.8471,.04878-.26352,.13078-.46263,.36304-.55049,.64604l-1.20623,3.84528-6.31245-12.31064,6.32997-3.24405,6.3047,12.29501c-1.69621-.57192-2.94152-.99937-3.7184-1.28042Z" fill="#1c2023"/><path d="M261.38294,228.46817c-.23617-.54847-.87445-.79831-1.42097-.56019l-.88617,.38649c-6.86489-5.24866-11.26444-8.60787-13.51693-10.31776,2.19394-1.23163,3.58951-3.11913,4.15166-5.60975,.59145-2.50234,.29283-5.13742-.88221-7.83495-1.19066-2.72678-2.92595-4.75288-5.155-6.01572-2.55894-1.48349-5.23694-1.6357-7.95206-.4509l-19.47996,8.49662c-.26157,.1132-.46849,.32793-.57387,.5953-.10343,.26743-.09757,.5641,.01758,.82762l.65776,1.51078c.24007,.54652,.87641,.79636,1.42292,.55824l.74953-.32598,5.84207,13.39397-.74953,.32793c-.26157,.11515-.46849,.32983-.57387,.5953-.10343,.26743-.09952,.56605,.01563,.82762l.67925,1.55761c.11515,.26157,.32793,.46849,.59536,.57192,.26932,.10538,.5641,.10148,.82756-.01368l.74758-.32793,5.90062,13.53061-.74758,.32598c-.26352,.1132-.47044,.32983-.57387,.5953-.10538,.26743-.09952,.5641,.01563,.82762l.6773,1.55566c.17761,.40603,.57582,.64805,.99156,.64805,.14446,0,.29081-.02931,.43136-.08981l14.61003-6.37296c.54652-.23617,.79636-.87445,.55824-1.42097l-.67736-1.55566c-.24007-.54847-.87641-.79837-1.42292-.56019l-.71045,.31035-5.90258-13.52866,2.86734-1.25117c6.24999,4.84856,10.63788,8.24483,13.31978,10.30603-.45872,.27524-.6519,.85302-.43332,1.35661l.6773,1.55566c.11515,.26157,.32989,.47038,.59536,.57387,.26737,.10538,.56605,.09952,.82951-.01563l4.59676-2.00461c.54847-.24007,.79831-.87641,.56019-1.42292l-.67925-1.55572Zm-31.18162-11.87537c-.26938-.10929-.56996-.10538-.83544,.00977s-.47624,.32989-.57973,.60122c-.57387,1.47561-1.05597,2.72678-1.45028,3.75351l-5.5258-12.66593,6.55839-2.86147,5.52384,12.66391-3.69099-1.50101Zm12.94306-1.71569l-5.65469,2.46522-5.82449-13.34903,5.65664-2.46919c1.5849-.68902,3.11132-.57967,4.64744,.32403,1.49711,.92324,2.62531,2.28767,3.44707,4.17126,.80808,1.85233,1.03454,3.61882,.67535,5.25837-.37281,1.71966-1.33702,2.8986-2.94732,3.59934Z" fill="#1c2023"/><path d="M295.74231,217.52684c-.13469-.57973-.71638-.94277-1.2922-.80814l-1.39752,.31817c-.27915,.06441-.52313,.23623-.67541,.48021-.15221,.24203-.201,.53479-.13854,.81394l.24398,1.0735-12.77327,2.90641-3.25382-14.29766,3.99749-.90962,.2772,.93691c.08389,.27915,.27518,.51336,.53284,.65001s.56019,.16003,.83544,.07418c.76705-.24789,1.26869-.43332,1.5791-.58364,.48601-.23617,.72218-.79245,.55629-1.30582-.18738-.57778-.31621-1.03063-.3904-1.35265-.18738-.82567-.08395-1.76258,.30449-2.78931,.1132-.29667,.08786-.63242-.06832-.91151-.15612-.27915-.42746-.47435-.74171-.53486l-1.67277-.31426c-.53486-.10148-1.06183,.21278-1.22779,.73201-.1698,.52307-.29081,.99742-.3689,1.42878l-4.49132,1.02276-3.24405-14.25083,12.77522-2.9083,.26541,1.17112c.06441,.2772,.23623,.52118,.47826,.67339,.24398,.15423,.53675,.20301,.8159,.14055l1.43855-.32793c.58358-.13274,.94668-.71241,.81394-1.29605l-.8725-3.82965c-.13078-.58162-.71051-.94473-1.29415-.81394l-30.05147,6.84144c-.58169,.13274-.94668,.71051-.81394,1.29409l.365,1.60646c.06441,.27909,.23617,.52307,.47819,.67535,.24209,.15221,.53876,.20295,.8159,.13854l.79642-.18152,3.2421,14.25083-.79441,.18158c-.58169,.13268-.94668,.71045-.8159,1.29214l.4001,1.75086c.13274,.58364,.71247,.94668,1.29409,.81394l.79447-.17957,3.25382,14.29571-.79642,.18152c-.58162,.13274-.94662,.71247-.81394,1.29409l.38844,1.70207c.1132,.50164,.56019,.8413,1.05206,.8413,.08005,0,.16204-.00782,.24209-.02735l30.0105-6.82972c.58162-.13268,.94662-.71241,.81394-1.29409-.56605-2.49257-.85693-3.77109-.8725-3.83545Zm-27.17638-15.50011c-.24398-.16589-.54456-.22249-.83153-.16394-.28886,.06246-.5387,.23812-.69482,.48992l-2.11976,3.42753-3.07035-13.48763,6.93706-1.5791,3.06644,13.47401c-1.49906-.97208-2.59997-1.69621-3.28704-2.16079Z" fill="#1c2023"/><path d="M456.24621,298.49566l-13.13625-4.79782,.50353-13.97755c.01563-.43136-.24789-.81785-.66558-.97599-.40987-.14635-.86664-.01948-1.13602,.32012l-8.6235,10.99896-13.13826-4.78799c-.40206-.15423-.85882-.01954-1.12234,.32793-.27518,.3435-.29472,.82371-.0566,1.17503l7.80956,11.60599-8.61178,11.00873c-.27915,.33575-.28886,.81785-.0566,1.17894,.25961,.36506,.7027,.52118,1.11648,.40016l13.43494-3.83356,7.80956,11.608c.19911,.28886,.50946,.43527,.83934,.44113,.08975,0,.18152-.01563,.27323-.03712,.42752-.12101,.72028-.49578,.73787-.93691l.5075-13.96387,13.43884-3.83942c.42746-.12688,.72218-.49773,.72608-.93887,.02149-.43723-.24789-.82762-.65001-.97593Z" fill="#1c2023"/><path d="M101.32891,188.40539l13.4408,3.83942,.50555,13.96387c.01563,.44113,.31035,.8159,.73781,.93887,.09177,.01954,.18152,.03517,.27329,.03517,.32983-.00586,.64018-.15423,.83733-.44113l7.80956-11.60794,13.43689,3.83349c.41384,.12101,.85693-.03511,1.11654-.40206,.23226-.3592,.22249-.8413-.05666-1.17705l-8.61178-11.00678,7.80956-11.60794c.23818-.35132,.21864-.83348-.0566-1.17308-.26352-.35132-.72022-.4821-1.12234-.32989l-13.14022,4.78805-8.62155-10.99896c-.26932-.33966-.72608-.46653-1.13602-.32012-.41769,.15808-.68121,.54456-.66558,.97593l.50164,13.97755-13.13435,4.79782c-.40206,.14831-.67144,.5387-.65001,.97593,.00391,.44113,.29869,.81199,.72615,.93887Z" fill="#1c2023"/></svg>